<svg width="620" height="176" viewBox="0 0 620 176" fill="none" xmlns="http://www.w3.org/2000/svg">
<path d="M198.456 119.82V116.43L220.736 52.01H228.486L250.766 116.43V119.82H244.956L239.146 102.38H210.086L204.276 119.82H198.466H198.456ZM212.016 96.08H237.206L224.616 59.27L212.026 96.08H212.016Z" fill="white"/>
<path d="M261.906 119.82V52.01H268.206V119.82H261.906Z" fill="white"/>
<path d="M286.606 119.82V52.01H317.116C321.506 52.01 325.026 53.33 327.676 55.98C330.326 58.63 331.646 62.15 331.646 66.54V78.65C331.646 84.21 329.446 88.18 325.056 90.57C322.986 91.73 320.826 92.44 318.566 92.7L332.616 116.43V119.82H326.806L312.276 93.18H292.906V119.82H286.606ZM292.906 86.88H316.636C319.476 86.88 321.636 86.12 323.126 84.6C324.616 83.08 325.356 80.94 325.356 78.16V67.02C325.356 61.21 322.446 58.3 316.636 58.3H292.906V86.88Z" fill="white"/>
<path d="M348.116 119.82V52.01H388.316V56.37L386.376 58.31H354.406V82.04H379.106V88.34H354.406V113.53H388.316V119.83H348.116V119.82Z" fill="white"/>
<path d="M394.136 119.82V116.43L413.026 84.95L396.076 55.4V52.01H401.406L417.386 81.07H417.866L433.846 52.01H439.176V55.4L422.226 84.95L441.116 116.43V119.82H435.786L417.866 88.82H417.386L399.466 119.82H394.136Z" fill="white"/>
<path d="M448.866 119.82V113.52H477.926C483.736 113.52 486.646 110.61 486.646 104.8V98.5C486.646 93.85 483.736 90.94 477.926 89.78L461.456 86.39C457.516 85.62 454.436 83.95 452.206 81.4C449.976 78.85 448.866 75.67 448.866 71.86V66.53C448.866 62.14 450.186 58.62 452.836 55.97C455.486 53.32 459.006 52 463.396 52H491.006V56.36L489.166 58.3H463.886C458.076 58.3 455.166 61.21 455.166 67.02V71.38C455.166 76.03 458.076 78.94 463.886 80.1L480.356 83.49C484.296 84.33 487.376 86.01 489.606 88.53C491.836 91.05 492.946 94.21 492.946 98.02V105.29C492.946 109.68 491.626 113.2 488.976 115.85C486.326 118.5 482.806 119.82 478.416 119.82H448.866Z" fill="white"/>
<path d="M504.086 106.25V52H518.616V101.41C518.616 105.29 520.556 107.22 524.426 107.22H535.086C538.966 107.22 540.896 105.28 540.896 101.41V52H555.426V106.25C555.426 110.64 554.106 114.16 551.456 116.81C548.806 119.46 545.286 120.78 540.896 120.78H518.616C514.226 120.78 510.706 119.46 508.056 116.81C505.406 114.16 504.086 110.64 504.086 106.25Z" fill="#FFE900"/>
<path d="M565.106 119.82V106.26H594.656C596.146 106.26 597.316 105.82 598.196 104.95C599.066 104.08 599.506 102.9 599.506 101.41V98.99C599.506 95.83 597.886 93.89 594.666 93.18L578.196 89.79C574.256 89.02 571.086 87.27 568.706 84.56C566.316 81.85 565.126 78.59 565.126 74.78V66.55C565.126 62.16 566.446 58.64 569.096 55.99C571.746 53.34 575.266 52.02 579.656 52.02H612.106V61.22L607.746 65.58H584.496C583.006 65.58 581.836 66.02 580.956 66.89C580.086 67.76 579.646 68.94 579.646 70.43V71.4C579.646 74.57 581.256 76.5 584.486 77.21L600.956 80.6C604.896 81.37 608.056 83.12 610.446 85.83C612.836 88.54 614.026 91.8 614.026 95.61V105.3C614.026 109.69 612.706 113.21 610.056 115.86C607.406 118.51 603.886 119.83 599.496 119.83H565.106V119.82Z" fill="#FFE900"/>
<path d="M119.376 66.836L107.424 85.42L156.264 155.796H180.456L119.376 66.836Z" fill="#FFE900"/>
<path d="M98.5439 17.044L19.5439 155.796H90.2399L111.408 118.62L97.8799 100.028L76.8879 135.884H52.7359L109.832 37.436L98.5439 17.044Z" fill="white" stroke="white" stroke-width="1.328" stroke-miterlimit="10"/>
</svg>
