<svg width="300" height="289" viewBox="0 0 300 289" fill="none" xmlns="http://www.w3.org/2000/svg">
<g clip-path="url(#clip0_2003_2037)">
<path d="M0 287.338V284.897L16.0416 238.515H21.6216L37.6632 284.897V287.338H33.48L29.2968 274.781H8.3736L4.1904 287.338H0.00720703H0ZM9.76321 270.245H27.9L18.8352 243.742L9.7704 270.245H9.76321Z" fill="white"/>
<path d="M45.684 287.338V238.515H50.22V287.338H45.684Z" fill="white"/>
<path d="M63.468 287.338V238.515H85.4352C88.596 238.515 91.1304 239.465 93.0384 241.373C94.9464 243.281 95.8968 245.815 95.8968 248.976V257.695C95.8968 261.699 94.3128 264.557 91.152 266.278C89.6616 267.113 88.1064 267.624 86.4792 267.811L96.5952 284.897V287.338H92.412L81.9504 268.157H68.004V287.338H63.468ZM68.004 263.621H85.0896C87.1344 263.621 88.6896 263.074 89.7624 261.979C90.8352 260.885 91.368 259.344 91.368 257.343V249.322C91.368 245.139 89.2728 243.043 85.0896 243.043H68.004V263.621Z" fill="white"/>
<path d="M107.755 287.338V238.515H136.699V241.654L135.302 243.051H112.284V260.136H130.068V264.672H112.284V282.809H136.699V287.345H107.755V287.338Z" fill="white"/>
<path d="M140.89 287.338V284.897L154.491 262.231L142.287 240.955V238.515H146.124L157.63 259.438H157.975L169.481 238.515H173.319V240.955L161.115 262.231L174.715 284.897V287.338H170.878L157.975 265.018H157.63L144.727 287.338H140.89Z" fill="white"/>
<path d="M180.295 287.338V282.802H201.218C205.402 282.802 207.497 280.707 207.497 276.523V271.987C207.497 268.639 205.402 266.544 201.218 265.709L189.36 263.268C186.523 262.714 184.306 261.511 182.7 259.675C181.094 257.839 180.295 255.55 180.295 252.807V248.969C180.295 245.808 181.246 243.274 183.154 241.366C185.062 239.458 187.596 238.507 190.757 238.507H210.636V241.647L209.311 243.043H191.11C186.926 243.043 184.831 245.139 184.831 249.322V252.461C184.831 255.809 186.926 257.904 191.11 258.739L202.968 261.18C205.805 261.785 208.022 262.995 209.628 264.809C211.234 266.623 212.033 268.899 212.033 271.642V276.876C212.033 280.037 211.082 282.571 209.174 284.479C207.266 286.387 204.732 287.338 201.571 287.338H180.295Z" fill="white"/>
<path d="M220.054 277.567V238.507H230.515V274.083C230.515 276.876 231.912 278.266 234.699 278.266H242.374C245.167 278.266 246.557 276.869 246.557 274.083V238.507H257.019V277.567C257.019 280.728 256.068 283.263 254.16 285.171C252.252 287.079 249.718 288.029 246.557 288.029H230.515C227.355 288.029 224.82 287.079 222.912 285.171C221.004 283.263 220.054 280.728 220.054 277.567Z" fill="#FFE900"/>
<path d="M263.988 287.338V277.575H285.264C286.337 277.575 287.179 277.258 287.813 276.631C288.439 276.005 288.756 275.155 288.756 274.083V272.34C288.756 270.065 287.59 268.668 285.271 268.157L273.413 265.716C270.576 265.162 268.294 263.902 266.58 261.951C264.859 259.999 264.002 257.652 264.002 254.909V248.983C264.002 245.823 264.953 243.288 266.861 241.38C268.769 239.472 271.303 238.522 274.464 238.522H297.828V245.146L294.689 248.285H277.949C276.876 248.285 276.034 248.602 275.4 249.228C274.774 249.855 274.457 250.704 274.457 251.777V252.475C274.457 254.758 275.616 256.147 277.942 256.659L289.8 259.099C292.637 259.654 294.912 260.914 296.633 262.865C298.354 264.816 299.21 267.163 299.21 269.907V276.883C299.21 280.044 298.26 282.579 296.352 284.487C294.444 286.395 291.91 287.345 288.749 287.345H263.988V287.338Z" fill="#FFE900"/>
<path d="M178.674 77.772L160.648 105.801L234.309 211.943H270.796L178.674 77.772Z" fill="#FFE900"/>
<path d="M147.254 2.67468L28.1051 211.943H134.73L166.656 155.874L146.253 127.833L114.592 181.912H78.1659L164.279 33.4303L147.254 2.67468Z" fill="white" stroke="white" stroke-width="2.00292" stroke-miterlimit="10"/>
</g>
<defs>
<clipPath id="clip0_2003_2037">
<rect width="300" height="289" fill="white"/>
</clipPath>
</defs>
</svg>
