<svg width="300" height="335" viewBox="0 0 300 335" fill="none" xmlns="http://www.w3.org/2000/svg">
<g clip-path="url(#clip0_2003_2226)">
<path d="M64.9649 318.4L58.2919 334.203H57.0153L63.6787 318.4H64.9746H64.9649Z" fill="white"/>
<path d="M71.7249 318.4L65.0519 334.203H63.7753L70.4387 318.4H71.7346H71.7249Z" fill="white"/>
<path d="M78.6398 321.882L78.456 322.888H74.1621L73.5625 326.282H77.0538L76.87 327.288H73.3787L72.5857 331.775H71.2898L73.0499 321.872H78.6301L78.6398 321.882Z" fill="white"/>
<path d="M80.8059 331.359C80.1772 331.011 79.6937 330.528 79.3455 329.899C78.9974 329.271 78.8233 328.555 78.8233 327.752C78.8233 326.63 79.0748 325.615 79.5873 324.706C80.0902 323.797 80.7962 323.071 81.6859 322.549C82.5757 322.027 83.5718 321.756 84.6646 321.756C85.4963 321.756 86.2313 321.93 86.8599 322.278C87.4886 322.627 87.9721 323.11 88.3203 323.729C88.6588 324.348 88.8328 325.064 88.8328 325.866C88.8328 326.998 88.5814 328.013 88.0688 328.932C87.5659 329.851 86.86 330.566 85.9702 331.089C85.0805 331.611 84.0844 331.882 82.9722 331.882C82.1502 331.882 81.4248 331.708 80.7962 331.359H80.8059ZM85.3996 330.073C86.0572 329.638 86.5698 329.058 86.9373 328.332C87.3048 327.607 87.4886 326.814 87.4886 325.963C87.4886 325.025 87.2178 324.29 86.6762 323.748C86.1346 323.207 85.3996 322.936 84.4712 322.936C83.6395 322.936 82.8948 323.149 82.2372 323.584C81.5796 324.019 81.067 324.59 80.6995 325.315C80.332 326.04 80.1482 326.824 80.1482 327.684C80.1482 328.623 80.419 329.367 80.9509 329.909C81.4829 330.45 82.2178 330.721 83.1463 330.721C83.978 330.721 84.7226 330.508 85.3803 330.073H85.3996Z" fill="white"/>
<path d="M96.8019 322.52C97.3048 322.946 97.5562 323.516 97.5562 324.222C97.5562 324.338 97.5369 324.522 97.4982 324.793C97.3725 325.479 97.0727 326.079 96.5891 326.601C96.1056 327.124 95.4576 327.472 94.6452 327.636L96.3957 331.785H94.8483L93.2042 327.733H91.6569L90.9315 331.785H89.6356L91.3958 321.882H94.5775C95.564 321.882 96.3087 322.095 96.8116 322.52H96.8019ZM96.2023 324.319C96.2023 323.864 96.0572 323.516 95.7574 323.265C95.4576 323.023 95.0031 322.897 94.3841 322.897H92.4983L91.831 326.688H93.7362C94.4325 326.688 94.9934 326.514 95.3996 326.166C95.8058 325.818 96.0669 325.363 96.1636 324.783C96.1926 324.609 96.2023 324.454 96.2023 324.319Z" fill="white"/>
<path d="M114.278 321.95L112.547 331.785H111.251L112.547 324.455L107.982 331.785H107.073L105.081 324.484L103.785 331.785H102.489L104.239 321.95H105.632L107.837 330.073L112.895 321.95H114.268H114.278Z" fill="white"/>
<path d="M117.604 322.888L117.005 326.282H120.602L120.428 327.278H116.831L116.202 330.76H120.235L120.051 331.785H114.722L116.483 321.872H121.802L121.618 322.897H117.595L117.604 322.888Z" fill="white"/>
<path d="M128.668 326.833C128.001 327.375 127.102 327.646 125.951 327.646H124.045L123.31 331.775H122.015L123.775 321.872H126.976C127.962 321.872 128.697 322.085 129.19 322.501C129.684 322.926 129.925 323.487 129.925 324.184C129.925 324.309 129.906 324.503 129.867 324.764C129.722 325.586 129.326 326.273 128.659 326.814L128.668 326.833ZM127.798 326.137C128.194 325.808 128.446 325.354 128.552 324.783C128.581 324.609 128.591 324.454 128.591 324.319C128.591 323.381 127.991 322.917 126.782 322.917H124.877L124.22 326.64H126.125C126.831 326.64 127.392 326.476 127.788 326.147L127.798 326.137Z" fill="white"/>
<path d="M135.989 324.212C136.56 323.439 137.266 322.839 138.088 322.404C138.919 321.969 139.78 321.746 140.699 321.746C141.782 321.746 142.672 322.007 143.387 322.53C144.103 323.052 144.567 323.787 144.77 324.744H143.223C143.049 324.164 142.739 323.719 142.275 323.4C141.811 323.081 141.221 322.926 140.496 322.926C139.77 322.926 139.161 323.081 138.562 323.4C137.962 323.719 137.449 324.174 137.034 324.764C136.618 325.354 136.337 326.04 136.192 326.814C136.144 327.056 136.124 327.346 136.124 327.665C136.124 328.593 136.395 329.328 136.937 329.87C137.478 330.412 138.213 330.682 139.113 330.682C139.828 330.682 140.486 330.528 141.057 330.218C141.637 329.909 142.111 329.464 142.478 328.884H144.026C143.484 329.831 142.768 330.566 141.869 331.079C140.97 331.591 139.983 331.853 138.91 331.853C138.107 331.853 137.391 331.688 136.763 331.35C136.134 331.011 135.651 330.537 135.302 329.928C134.954 329.319 134.78 328.613 134.78 327.82C134.78 327.491 134.809 327.152 134.867 326.814C135.041 325.847 135.409 324.976 135.979 324.203L135.989 324.212Z" fill="white"/>
<path d="M147.788 331.359C147.159 331.011 146.676 330.528 146.327 329.899C145.979 329.271 145.805 328.555 145.805 327.752C145.805 326.63 146.057 325.615 146.569 324.706C147.072 323.797 147.778 323.071 148.668 322.549C149.558 322.027 150.554 321.756 151.647 321.756C152.478 321.756 153.213 321.93 153.842 322.278C154.47 322.627 154.954 323.11 155.302 323.729C155.641 324.348 155.815 325.064 155.815 325.866C155.815 326.998 155.563 328.013 155.051 328.932C154.548 329.851 153.842 330.566 152.952 331.089C152.062 331.611 151.066 331.882 149.954 331.882C149.132 331.882 148.407 331.708 147.778 331.359H147.788ZM152.391 330.073C153.049 329.638 153.561 329.058 153.929 328.332C154.296 327.607 154.48 326.814 154.48 325.963C154.48 325.025 154.209 324.29 153.668 323.748C153.126 323.207 152.391 322.936 151.463 322.936C150.631 322.936 149.886 323.149 149.229 323.584C148.571 324.019 148.059 324.59 147.691 325.315C147.324 326.04 147.14 326.824 147.14 327.684C147.14 328.623 147.411 329.367 147.943 329.909C148.474 330.45 149.209 330.721 150.138 330.721C150.97 330.721 151.714 330.508 152.372 330.073H152.391Z" fill="white"/>
<path d="M164.403 331.785H163.107L159.316 323.903L157.913 331.785H156.617L158.378 321.872H159.674L163.484 329.744L164.877 321.872H166.172L164.412 331.785H164.403Z" fill="white"/>
<path d="M167.749 331.224C167.178 330.779 166.888 330.189 166.888 329.454C166.888 329.309 166.888 329.212 166.898 329.145H168.174C168.145 329.609 168.29 330.005 168.6 330.334C168.909 330.663 169.393 330.827 170.031 330.827C170.669 330.827 171.182 330.682 171.569 330.383C171.946 330.092 172.139 329.677 172.139 329.145C172.139 328.826 172.043 328.555 171.859 328.332C171.675 328.11 171.443 327.926 171.172 327.781C170.901 327.636 170.534 327.472 170.07 327.288C169.499 327.056 169.045 326.843 168.696 326.65C168.348 326.456 168.058 326.185 167.826 325.837C167.584 325.499 167.478 325.064 167.497 324.541C167.497 323.99 167.642 323.506 167.942 323.081C168.242 322.655 168.638 322.327 169.161 322.094C169.673 321.862 170.263 321.746 170.93 321.746C171.598 321.746 172.13 321.853 172.604 322.075C173.068 322.298 173.426 322.597 173.658 322.984C173.89 323.371 173.996 323.806 173.967 324.29H172.613C172.633 324.048 172.575 323.806 172.449 323.584C172.323 323.361 172.12 323.168 171.849 323.033C171.578 322.888 171.25 322.82 170.843 322.82C170.225 322.82 169.731 322.965 169.354 323.255C168.977 323.545 168.793 323.942 168.793 324.445C168.793 324.735 168.88 324.996 169.054 325.209C169.228 325.421 169.451 325.605 169.712 325.75C169.973 325.895 170.341 326.069 170.805 326.272C171.366 326.514 171.82 326.727 172.178 326.93C172.536 327.133 172.836 327.404 173.077 327.742C173.319 328.081 173.445 328.506 173.445 329.019C173.445 329.57 173.3 330.063 173.019 330.489C172.739 330.924 172.333 331.263 171.801 331.514C171.269 331.766 170.65 331.891 169.954 331.891C169.035 331.891 168.29 331.669 167.72 331.234L167.749 331.224Z" fill="white"/>
<path d="M177.894 321.882L176.782 328.129C176.733 328.41 176.714 328.642 176.714 328.826C176.714 329.474 176.898 329.948 177.255 330.257C177.613 330.566 178.116 330.721 178.764 330.721C179.528 330.721 180.166 330.508 180.669 330.073C181.172 329.638 181.501 328.99 181.665 328.12L182.778 321.872H184.074L182.961 328.12C182.816 328.942 182.536 329.638 182.101 330.199C181.665 330.76 181.143 331.185 180.534 331.456C179.915 331.727 179.257 331.872 178.561 331.872C177.623 331.872 176.869 331.63 176.288 331.147C175.708 330.663 175.418 329.957 175.418 329.019C175.418 328.739 175.447 328.439 175.505 328.12L176.617 321.872H177.913L177.894 321.882Z" fill="white"/>
<path d="M185.94 330.789H189.402L189.219 331.785H184.46L186.22 321.882H187.516L185.94 330.789Z" fill="white"/>
<path d="M198.435 321.882L198.251 322.888H195.553L193.986 331.785H192.69L194.257 322.888H191.559L191.743 321.882H198.435Z" fill="white"/>
<path d="M201.336 321.882L199.576 331.785H198.28L200.04 321.882H201.336Z" fill="white"/>
<path d="M209.567 331.785H208.271L204.48 323.903L203.077 331.785H201.781L203.542 321.872H204.837L208.648 329.744L210.04 321.872H211.336L209.576 331.785H209.567Z" fill="white"/>
<path d="M213.28 324.213C213.851 323.439 214.557 322.839 215.388 322.404C216.22 321.969 217.1 321.756 218.019 321.756C219.083 321.756 219.963 322.017 220.678 322.539C221.394 323.062 221.858 323.797 222.061 324.744H220.514C220.34 324.164 220.021 323.719 219.557 323.4C219.092 323.081 218.512 322.926 217.816 322.926C217.12 322.926 216.472 323.081 215.862 323.4C215.253 323.719 214.74 324.174 214.325 324.764C213.909 325.354 213.628 326.04 213.483 326.814C213.435 327.056 213.416 327.346 213.416 327.665C213.416 328.594 213.686 329.329 214.238 329.87C214.789 330.412 215.524 330.682 216.443 330.682C217.419 330.682 218.27 330.392 218.996 329.812C219.721 329.232 220.224 328.439 220.504 327.443H216.559L216.742 326.418H222.071L221.887 327.414C221.665 328.226 221.288 328.971 220.727 329.648C220.166 330.325 219.508 330.857 218.725 331.253C217.942 331.65 217.12 331.843 216.249 331.843C215.437 331.843 214.711 331.679 214.083 331.34C213.454 331.002 212.961 330.528 212.613 329.909C212.265 329.29 212.091 328.584 212.091 327.791C212.091 327.472 212.12 327.133 212.178 326.795C212.352 325.828 212.719 324.957 213.29 324.184L213.28 324.213Z" fill="white"/>
<path d="M229.924 322.888L229.324 326.282H232.922L232.748 327.278H229.15L228.522 330.76H232.555L232.371 331.785H227.042L228.802 321.872H234.121L233.938 322.897H229.914L229.924 322.888Z" fill="white"/>
<path d="M242.129 331.785H240.833L237.042 323.903L235.64 331.785H234.344L236.104 321.872H237.4L241.21 329.744L242.603 321.872H243.899L242.138 331.785H242.129Z" fill="white"/>
<path d="M245.842 324.213C246.413 323.439 247.119 322.839 247.951 322.404C248.782 321.969 249.663 321.756 250.581 321.756C251.645 321.756 252.525 322.017 253.241 322.539C253.956 323.062 254.421 323.797 254.624 324.744H253.076C252.902 324.164 252.583 323.719 252.119 323.4C251.655 323.081 251.075 322.926 250.378 322.926C249.682 322.926 249.034 323.081 248.425 323.4C247.815 323.719 247.303 324.174 246.887 324.764C246.471 325.354 246.191 326.04 246.046 326.814C245.997 327.056 245.978 327.346 245.978 327.665C245.978 328.594 246.249 329.329 246.8 329.87C247.351 330.412 248.086 330.682 249.005 330.682C249.982 330.682 250.833 330.392 251.558 329.812C252.283 329.232 252.786 328.439 253.067 327.443H249.121L249.305 326.418H254.633L254.45 327.414C254.227 328.226 253.85 328.971 253.289 329.648C252.728 330.325 252.071 330.857 251.287 331.253C250.504 331.65 249.682 331.843 248.811 331.843C247.999 331.843 247.274 331.679 246.645 331.34C246.017 331.002 245.523 330.528 245.175 329.909C244.827 329.29 244.653 328.584 244.653 327.791C244.653 327.472 244.682 327.133 244.74 326.795C244.914 325.828 245.282 324.957 245.852 324.184L245.842 324.213Z" fill="white"/>
<path d="M258.434 321.882L256.674 331.785H255.378L257.138 321.882H258.434Z" fill="white"/>
<path d="M266.664 331.785H265.368L261.577 323.903L260.175 331.785H258.879L260.639 321.872H261.935L265.746 329.744L267.138 321.872H268.434L266.674 331.785H266.664Z" fill="white"/>
<path d="M271.732 322.888L271.132 326.282H274.73L274.556 327.278H270.958L270.33 330.76H274.362L274.179 331.785H268.85L270.61 321.872H275.929L275.745 322.897H271.722L271.732 322.888Z" fill="white"/>
<path d="M279.024 322.888L278.424 326.282H282.022L281.848 327.278H278.25L277.622 330.76H281.654L281.471 331.785H276.142L277.902 321.872H283.221L283.037 322.897H279.014L279.024 322.888Z" fill="white"/>
<path d="M290.62 322.52C291.122 322.946 291.374 323.516 291.374 324.222C291.374 324.338 291.355 324.522 291.316 324.793C291.19 325.479 290.89 326.079 290.407 326.601C289.923 327.124 289.275 327.472 288.463 327.636L290.213 331.785H288.666L287.022 327.733H285.475L284.749 331.785H283.453L285.213 321.882H288.395C289.382 321.882 290.126 322.095 290.629 322.52H290.62ZM290.02 324.319C290.02 323.864 289.875 323.516 289.575 323.265C289.275 323.023 288.821 322.897 288.202 322.897H286.316L285.649 326.688H287.554C288.25 326.688 288.811 326.514 289.217 326.166C289.623 325.818 289.885 325.363 289.981 324.783C290.01 324.609 290.02 324.454 290.02 324.319Z" fill="white"/>
<path d="M293.221 331.224C292.651 330.779 292.36 330.189 292.36 329.454C292.36 329.309 292.36 329.212 292.37 329.145H293.647C293.618 329.609 293.763 330.005 294.072 330.334C294.382 330.663 294.865 330.827 295.504 330.827C296.142 330.827 296.654 330.682 297.041 330.383C297.418 330.092 297.612 329.677 297.612 329.145C297.612 328.826 297.515 328.555 297.331 328.332C297.148 328.11 296.915 327.926 296.645 327.781C296.374 327.636 296.006 327.472 295.542 327.288C294.972 327.056 294.517 326.843 294.169 326.65C293.821 326.456 293.531 326.185 293.299 325.837C293.057 325.499 292.95 325.064 292.97 324.541C292.97 323.99 293.115 323.506 293.415 323.081C293.714 322.655 294.111 322.327 294.633 322.094C295.146 321.862 295.736 321.746 296.403 321.746C297.07 321.746 297.602 321.853 298.076 322.075C298.54 322.298 298.898 322.597 299.13 322.984C299.362 323.371 299.469 323.806 299.44 324.29H298.086C298.105 324.048 298.047 323.806 297.921 323.584C297.796 323.361 297.592 323.168 297.322 323.033C297.051 322.888 296.722 322.82 296.316 322.82C295.697 322.82 295.204 322.965 294.827 323.255C294.449 323.545 294.266 323.942 294.266 324.445C294.266 324.735 294.353 324.996 294.527 325.209C294.701 325.421 294.923 325.605 295.184 325.75C295.446 325.895 295.813 326.069 296.277 326.272C296.838 326.514 297.293 326.727 297.651 326.93C298.008 327.133 298.308 327.404 298.55 327.742C298.792 328.081 298.917 328.506 298.917 329.019C298.917 329.57 298.772 330.063 298.492 330.489C298.211 330.924 297.805 331.263 297.273 331.514C296.741 331.766 296.122 331.891 295.426 331.891C294.507 331.891 293.763 331.669 293.192 331.234L293.221 331.224Z" fill="white"/>
<path d="M11.4939 297.114V311.969H9.54997V305.238H1.9872V311.969H0.043335V297.114H1.9872V303.633H9.54997V297.114H11.4939Z" fill="white"/>
<path d="M27.074 297.114L21.4648 311.969H19.2308L13.6216 297.114H15.6912L20.3623 309.919L25.0334 297.114H27.0837H27.074Z" fill="white"/>
<path d="M37.9829 308.671H31.5033L30.3137 311.979H28.2635L33.6309 297.211H35.865L41.213 311.979H39.1628L37.9732 308.671H37.9829ZM37.4317 307.095L34.7431 299.59L32.0546 307.095H37.422H37.4317Z" fill="white"/>
<path d="M43.8242 300.625C44.4818 299.464 45.3716 298.565 46.5031 297.907C47.6346 297.25 48.8822 296.931 50.2651 296.931C51.8802 296.931 53.3018 297.317 54.501 298.101C55.7003 298.884 56.59 299.987 57.1413 301.428H54.8202C54.4043 300.528 53.8144 299.842 53.0407 299.358C52.267 298.874 51.3386 298.633 50.2554 298.633C49.1723 298.633 48.2826 298.874 47.4605 299.358C46.6385 299.842 45.9905 300.528 45.5166 301.418C45.0524 302.308 44.8107 303.342 44.8107 304.542C44.8107 305.741 45.0428 306.756 45.5166 307.646C45.9905 308.536 46.6288 309.222 47.4605 309.706C48.2826 310.19 49.211 310.431 50.2554 310.431C51.2999 310.431 52.2574 310.19 53.0407 309.716C53.8144 309.242 54.4043 308.555 54.8202 307.656H57.1413C56.59 309.077 55.7099 310.17 54.501 310.944C53.2922 311.718 51.8802 312.104 50.2651 312.104C48.8918 312.104 47.6346 311.785 46.5031 311.137C45.3716 310.489 44.4818 309.59 43.8242 308.439C43.1666 307.288 42.8474 305.992 42.8474 304.542C42.8474 303.091 43.1762 301.785 43.8242 300.635V300.625Z" fill="white"/>
<path d="M67.6439 298.691V303.652H73.0597V305.248H67.6439V310.364H73.698V311.96H65.7097V297.085H73.698V298.681H67.6439V298.691Z" fill="white"/>
<path d="M88.3207 311.969H86.3865L78.582 300.141V311.969H76.6381V297.095H78.582L86.3865 308.903V297.095H88.3207V311.969Z" fill="white"/>
<path d="M102.876 301.428C102.46 300.557 101.87 299.89 101.087 299.416C100.303 298.942 99.3941 298.7 98.3593 298.7C97.3245 298.7 96.3864 298.942 95.5547 299.416C94.723 299.89 94.0654 300.577 93.5915 301.466C93.1176 302.356 92.8758 303.381 92.8758 304.542C92.8758 305.702 93.1176 306.727 93.5915 307.607C94.0654 308.488 94.723 309.164 95.5547 309.638C96.3864 310.112 97.3245 310.354 98.3593 310.354C99.81 310.354 101 309.919 101.938 309.058C102.876 308.188 103.427 307.018 103.582 305.538H97.6533V303.961H105.642V305.451C105.526 306.669 105.148 307.791 104.491 308.807C103.833 309.822 102.982 310.625 101.909 311.215C100.845 311.805 99.6553 312.095 98.3497 312.095C96.9764 312.095 95.7095 311.776 94.578 311.128C93.4368 310.48 92.547 309.58 91.8797 308.429C91.2221 307.279 90.8836 305.983 90.8836 304.532C90.8836 303.081 91.2124 301.776 91.8797 300.625C92.5374 299.464 93.4368 298.565 94.578 297.917C95.7095 297.269 96.9764 296.95 98.3497 296.95C99.926 296.95 101.319 297.337 102.537 298.12C103.756 298.904 104.636 300.006 105.187 301.428H102.866H102.876Z" fill="white"/>
<path d="M110.139 297.114V311.969H108.195V297.114H110.139Z" fill="white"/>
<path d="M125.119 311.969H123.185L115.38 300.141V311.969H113.437V297.095H115.38L123.185 308.903V297.095H125.119V311.969Z" fill="white"/>
<path d="M130.361 298.691V303.652H135.777V305.248H130.361V310.364H136.415V311.96H128.427V297.085H136.415V298.681H130.361V298.691Z" fill="white"/>
<path d="M141.299 298.691V303.652H146.715V305.248H141.299V310.364H147.353V311.96H139.365V297.085H147.353V298.681H141.299V298.691Z" fill="white"/>
<path d="M158.107 311.969L154.567 305.896H152.227V311.969H150.283V297.114H155.08C156.202 297.114 157.149 297.308 157.923 297.685C158.697 298.062 159.277 298.584 159.664 299.242C160.051 299.9 160.234 300.644 160.234 301.476C160.234 302.501 159.944 303.4 159.354 304.184C158.764 304.967 157.884 305.48 156.705 305.741L160.438 311.959H158.116L158.107 311.969ZM152.227 304.339H155.08C156.134 304.339 156.917 304.077 157.449 303.565C157.971 303.043 158.242 302.356 158.242 301.486C158.242 300.615 157.981 299.919 157.469 299.435C156.946 298.952 156.153 298.71 155.089 298.71H152.237V304.339H152.227Z" fill="white"/>
<path d="M165.186 297.114V311.969H163.242V297.114H165.186Z" fill="white"/>
<path d="M180.167 311.969H178.232L170.428 300.141V311.969H168.484V297.095H170.428L178.232 308.903V297.095H180.167V311.969Z" fill="white"/>
<path d="M194.722 301.428C194.306 300.557 193.716 299.89 192.932 299.416C192.149 298.942 191.24 298.7 190.205 298.7C189.17 298.7 188.232 298.942 187.401 299.416C186.569 299.89 185.911 300.577 185.437 301.466C184.963 302.356 184.722 303.381 184.722 304.542C184.722 305.702 184.963 306.727 185.437 307.607C185.911 308.488 186.569 309.164 187.401 309.638C188.232 310.112 189.17 310.354 190.205 310.354C191.656 310.354 192.845 309.919 193.783 309.058C194.722 308.188 195.273 307.018 195.428 305.538H189.499V303.961H197.488V305.451C197.371 306.669 196.994 307.791 196.337 308.807C195.679 309.822 194.828 310.625 193.754 311.215C192.691 311.805 191.501 312.095 190.196 312.095C188.822 312.095 187.555 311.776 186.424 311.128C185.283 310.48 184.393 309.58 183.726 308.429C183.068 307.279 182.729 305.983 182.729 304.532C182.729 303.081 183.058 301.776 183.726 300.625C184.383 299.464 185.283 298.565 186.424 297.917C187.555 297.269 188.822 296.95 190.196 296.95C191.772 296.95 193.165 297.337 194.383 298.12C195.602 298.904 196.482 300.006 197.033 301.428H194.712H194.722Z" fill="white"/>
<path d="M207.816 311.602C207.042 311.253 206.433 310.77 205.998 310.151C205.553 309.532 205.331 308.816 205.311 308.014H207.381C207.449 308.71 207.739 309.3 208.242 309.774C208.745 310.248 209.479 310.489 210.447 310.489C211.414 310.489 212.1 310.257 212.632 309.793C213.164 309.329 213.435 308.739 213.435 308.014C213.435 307.443 213.28 306.988 212.971 306.631C212.661 306.273 212.265 306.002 211.801 305.818C211.327 305.635 210.698 305.431 209.905 305.219C208.928 304.967 208.135 304.706 207.545 304.455C206.955 304.203 206.452 303.797 206.037 303.246C205.621 302.704 205.408 301.96 205.408 301.041C205.408 300.228 205.611 299.513 206.027 298.884C206.443 298.256 207.013 297.772 207.768 297.433C208.512 297.095 209.373 296.921 210.34 296.921C211.733 296.921 212.874 297.269 213.764 297.965C214.654 298.662 215.156 299.58 215.263 300.731H213.135C213.067 300.161 212.768 299.658 212.236 299.232C211.714 298.797 211.017 298.584 210.147 298.584C209.334 298.584 208.677 298.797 208.164 299.213C207.652 299.629 207.4 300.219 207.4 300.973C207.4 301.515 207.555 301.95 207.855 302.298C208.164 302.636 208.541 302.898 208.986 303.072C209.431 303.246 210.06 303.449 210.872 303.681C211.849 303.952 212.642 304.213 213.242 304.484C213.841 304.745 214.354 305.151 214.779 305.702C215.205 306.253 215.418 306.988 215.418 307.927C215.418 308.652 215.224 309.329 214.847 309.977C214.47 310.625 213.899 311.137 213.145 311.534C212.391 311.93 211.501 312.133 210.485 312.133C209.47 312.133 208.628 311.959 207.855 311.611L207.816 311.602Z" fill="white"/>
<path d="M220.186 298.691V303.652H225.601V305.248H220.186V310.364H226.24V311.96H218.251V297.085H226.24V298.681H220.186V298.691Z" fill="white"/>
<path d="M237.004 311.969L233.464 305.896H231.124V311.969H229.18V297.114H233.976C235.098 297.114 236.046 297.308 236.82 297.685C237.593 298.062 238.174 298.584 238.561 299.242C238.947 299.9 239.131 300.644 239.131 301.476C239.131 302.501 238.841 303.4 238.251 304.184C237.661 304.967 236.781 305.48 235.601 305.741L239.334 311.959H237.013L237.004 311.969ZM231.124 304.339H233.976C235.031 304.339 235.814 304.077 236.346 303.565C236.868 303.043 237.139 302.356 237.139 301.486C237.139 300.615 236.878 299.919 236.365 299.435C235.843 298.952 235.05 298.71 233.986 298.71H231.133V304.339H231.124Z" fill="white"/>
<path d="M254.411 297.114L248.802 311.969H246.568L240.959 297.114H243.028L247.699 309.919L252.371 297.114H254.421H254.411Z" fill="white"/>
<path d="M258.483 297.114V311.969H256.539V297.114H258.483Z" fill="white"/>
<path d="M262.042 300.625C262.699 299.464 263.589 298.565 264.721 297.907C265.852 297.25 267.1 296.931 268.483 296.931C270.098 296.931 271.519 297.317 272.718 298.101C273.918 298.884 274.807 299.987 275.359 301.428H273.038C272.622 300.528 272.032 299.842 271.258 299.358C270.484 298.874 269.556 298.633 268.473 298.633C267.39 298.633 266.5 298.874 265.678 299.358C264.856 299.842 264.208 300.528 263.734 301.418C263.27 302.308 263.028 303.342 263.028 304.542C263.028 305.741 263.26 306.756 263.734 307.646C264.208 308.536 264.846 309.222 265.678 309.706C266.5 310.19 267.428 310.431 268.473 310.431C269.517 310.431 270.475 310.19 271.258 309.716C272.032 309.242 272.622 308.555 273.038 307.656H275.359C274.807 309.077 273.927 310.17 272.718 310.944C271.51 311.718 270.098 312.104 268.483 312.104C267.109 312.104 265.852 311.785 264.721 311.137C263.589 310.489 262.699 309.59 262.042 308.439C261.384 307.288 261.065 305.992 261.065 304.542C261.065 303.091 261.394 301.785 262.042 300.635V300.625Z" fill="white"/>
<path d="M280.175 298.691V303.652H285.591V305.248H280.175V310.364H286.229V311.96H278.241V297.085H286.229V298.681H280.175V298.691Z" fill="white"/>
<path d="M291.248 311.602C290.475 311.253 289.866 310.77 289.43 310.151C288.985 309.532 288.763 308.816 288.744 308.014H290.813C290.881 308.71 291.171 309.3 291.674 309.774C292.177 310.248 292.912 310.489 293.879 310.489C294.846 310.489 295.533 310.257 296.065 309.793C296.597 309.329 296.867 308.739 296.867 308.014C296.867 307.443 296.713 306.988 296.403 306.631C296.094 306.273 295.697 306.002 295.233 305.818C294.759 305.635 294.13 305.431 293.337 305.219C292.361 304.967 291.568 304.706 290.978 304.455C290.388 304.203 289.885 303.797 289.469 303.246C289.053 302.704 288.84 301.96 288.84 301.041C288.84 300.228 289.043 299.513 289.459 298.884C289.875 298.256 290.446 297.772 291.2 297.433C291.945 297.095 292.806 296.921 293.773 296.921C295.165 296.921 296.306 297.269 297.196 297.965C298.086 298.662 298.589 299.58 298.695 300.731H296.568C296.5 300.161 296.2 299.658 295.668 299.232C295.146 298.797 294.45 298.584 293.579 298.584C292.767 298.584 292.109 298.797 291.597 299.213C291.084 299.629 290.833 300.219 290.833 300.973C290.833 301.515 290.987 301.95 291.287 302.298C291.597 302.636 291.974 302.898 292.419 303.072C292.864 303.246 293.492 303.449 294.305 303.681C295.281 303.952 296.074 304.213 296.674 304.484C297.274 304.745 297.786 305.151 298.212 305.702C298.637 306.253 298.85 306.988 298.85 307.927C298.85 308.652 298.656 309.329 298.279 309.977C297.902 310.625 297.332 311.137 296.577 311.534C295.823 311.93 294.933 312.133 293.918 312.133C292.902 312.133 292.061 311.959 291.287 311.611L291.248 311.602Z" fill="white"/>
<path d="M0 287.338V284.897L16.0416 238.515H21.6216L37.6632 284.897V287.338H33.48L29.2968 274.781H8.3736L4.1904 287.338H0.00720703H0ZM9.76321 270.245H27.9L18.8352 243.742L9.7704 270.245H9.76321Z" fill="white"/>
<path d="M45.684 287.338V238.515H50.22V287.338H45.684Z" fill="white"/>
<path d="M63.468 287.338V238.515H85.4352C88.596 238.515 91.1304 239.465 93.0384 241.373C94.9464 243.281 95.8968 245.815 95.8968 248.976V257.695C95.8968 261.699 94.3128 264.557 91.152 266.278C89.6616 267.113 88.1064 267.624 86.4792 267.811L96.5952 284.897V287.338H92.412L81.9504 268.157H68.004V287.338H63.468ZM68.004 263.621H85.0896C87.1344 263.621 88.6896 263.074 89.7624 261.979C90.8352 260.885 91.368 259.344 91.368 257.343V249.322C91.368 245.139 89.2728 243.043 85.0896 243.043H68.004V263.621Z" fill="white"/>
<path d="M107.755 287.338V238.515H136.699V241.654L135.302 243.051H112.284V260.136H130.068V264.672H112.284V282.809H136.699V287.345H107.755V287.338Z" fill="white"/>
<path d="M140.89 287.338V284.897L154.49 262.231L142.286 240.955V238.515H146.124L157.63 259.438H157.975L169.481 238.515H173.318V240.955L161.114 262.231L174.715 284.897V287.338H170.878L157.975 265.018H157.63L144.727 287.338H140.89Z" fill="white"/>
<path d="M180.295 287.338V282.802H201.218C205.402 282.802 207.497 280.707 207.497 276.523V271.987C207.497 268.639 205.402 266.544 201.218 265.709L189.36 263.268C186.523 262.714 184.306 261.511 182.7 259.675C181.094 257.839 180.295 255.55 180.295 252.807V248.969C180.295 245.808 181.246 243.274 183.154 241.366C185.062 239.458 187.596 238.507 190.757 238.507H210.636V241.647L209.311 243.043H191.109C186.926 243.043 184.831 245.139 184.831 249.322V252.461C184.831 255.809 186.926 257.904 191.109 258.739L202.968 261.18C205.805 261.785 208.022 262.995 209.628 264.809C211.233 266.623 212.033 268.899 212.033 271.642V276.876C212.033 280.037 211.082 282.571 209.174 284.479C207.266 286.387 204.732 287.338 201.571 287.338H180.295Z" fill="white"/>
<path d="M220.054 277.567V238.507H230.515V274.083C230.515 276.876 231.912 278.266 234.698 278.266H242.374C245.167 278.266 246.557 276.869 246.557 274.083V238.507H257.018V277.567C257.018 280.728 256.068 283.263 254.16 285.171C252.252 287.079 249.718 288.029 246.557 288.029H230.515C227.354 288.029 224.82 287.079 222.912 285.171C221.004 283.263 220.054 280.728 220.054 277.567Z" fill="white"/>
<path d="M263.988 287.338V277.575H285.264C286.337 277.575 287.179 277.258 287.813 276.631C288.439 276.005 288.756 275.155 288.756 274.083V272.34C288.756 270.065 287.589 268.668 285.271 268.157L273.413 265.716C270.576 265.162 268.293 263.902 266.58 261.951C264.859 259.999 264.002 257.652 264.002 254.909V248.983C264.002 245.823 264.953 243.288 266.861 241.38C268.769 239.472 271.303 238.522 274.464 238.522H297.828V245.146L294.689 248.285H277.949C276.876 248.285 276.033 248.602 275.4 249.228C274.773 249.855 274.457 250.704 274.457 251.777V252.475C274.457 254.758 275.616 256.147 277.941 256.659L289.8 259.099C292.637 259.654 294.912 260.914 296.633 262.865C298.353 264.816 299.21 267.163 299.21 269.907V276.883C299.21 280.044 298.26 282.579 296.352 284.487C294.444 286.395 291.909 287.345 288.749 287.345H263.988V287.338Z" fill="white"/>
<path d="M178.674 77.772L160.648 105.801L234.309 211.943H270.796L178.674 77.772Z" fill="white"/>
<path d="M147.255 2.67462L28.1052 211.943H134.73L166.656 155.874L146.253 127.833L114.593 181.911H78.1661L164.279 33.4302L147.255 2.67462Z" fill="white" stroke="white" stroke-width="2.00292" stroke-miterlimit="10"/>
</g>
<defs>
<clipPath id="clip0_2003_2226">
<rect width="299.52" height="334.8" fill="white"/>
</clipPath>
</defs>
</svg>
