<svg width="620" height="176" viewBox="0 0 620 176" fill="none" xmlns="http://www.w3.org/2000/svg">
<g clip-path="url(#clip0_2003_2477)">
<path d="M377.23 141.98L370.33 158.32H369.01L375.9 141.98H377.24H377.23Z" fill="#FFE900"/>
<path d="M384.22 141.98L377.32 158.32H376L382.89 141.98H384.23H384.22Z" fill="#FFE900"/>
<path d="M391.37 145.58L391.18 146.62H386.74L386.12 150.13H389.73L389.54 151.17H385.93L385.11 155.81H383.77L385.59 145.57H391.36L391.37 145.58Z" fill="#FFE900"/>
<path d="M393.61 155.38C392.96 155.02 392.46 154.52 392.1 153.87C391.74 153.22 391.56 152.48 391.56 151.65C391.56 150.49 391.82 149.44 392.35 148.5C392.87 147.56 393.6 146.81 394.52 146.27C395.44 145.73 396.47 145.45 397.6 145.45C398.46 145.45 399.22 145.63 399.87 145.99C400.52 146.35 401.02 146.85 401.38 147.49C401.73 148.13 401.91 148.87 401.91 149.7C401.91 150.87 401.65 151.92 401.12 152.87C400.6 153.82 399.87 154.56 398.95 155.1C398.03 155.64 397 155.92 395.85 155.92C395 155.92 394.25 155.74 393.6 155.38H393.61ZM398.36 154.05C399.04 153.6 399.57 153 399.95 152.25C400.33 151.5 400.52 150.68 400.52 149.8C400.52 148.83 400.24 148.07 399.68 147.51C399.12 146.95 398.36 146.67 397.4 146.67C396.54 146.67 395.77 146.89 395.09 147.34C394.41 147.79 393.88 148.38 393.5 149.13C393.12 149.88 392.93 150.69 392.93 151.58C392.93 152.55 393.21 153.32 393.76 153.88C394.31 154.44 395.07 154.72 396.03 154.72C396.89 154.72 397.66 154.5 398.34 154.05H398.36Z" fill="#FFE900"/>
<path d="M410.15 146.24C410.67 146.68 410.93 147.27 410.93 148C410.93 148.12 410.91 148.31 410.87 148.59C410.74 149.3 410.43 149.92 409.93 150.46C409.43 151 408.76 151.36 407.92 151.53L409.73 155.82H408.13L406.43 151.63H404.83L404.08 155.82H402.74L404.56 145.58H407.85C408.87 145.58 409.64 145.8 410.16 146.24H410.15ZM409.53 148.1C409.53 147.63 409.38 147.27 409.07 147.01C408.76 146.76 408.29 146.63 407.65 146.63H405.7L405.01 150.55H406.98C407.7 150.55 408.28 150.37 408.7 150.01C409.12 149.65 409.39 149.18 409.49 148.58C409.52 148.4 409.53 148.24 409.53 148.1Z" fill="#FFE900"/>
<path d="M428.22 145.65L426.43 155.82H425.09L426.43 148.24L421.71 155.82H420.77L418.71 148.27L417.37 155.82H416.03L417.84 145.65H419.28L421.56 154.05L426.79 145.65H428.21H428.22Z" fill="#FFE900"/>
<path d="M431.66 146.62L431.04 150.13H434.76L434.58 151.16H430.86L430.21 154.76H434.38L434.19 155.82H428.68L430.5 145.57H436L435.81 146.63H431.65L431.66 146.62Z" fill="#FFE900"/>
<path d="M443.1 150.7C442.41 151.26 441.48 151.54 440.29 151.54H438.32L437.56 155.81H436.22L438.04 145.57H441.35C442.37 145.57 443.13 145.79 443.64 146.22C444.15 146.66 444.4 147.24 444.4 147.96C444.4 148.09 444.38 148.29 444.34 148.56C444.19 149.41 443.78 150.12 443.09 150.68L443.1 150.7ZM442.2 149.98C442.61 149.64 442.87 149.17 442.98 148.58C443.01 148.4 443.02 148.24 443.02 148.1C443.02 147.13 442.4 146.65 441.15 146.65H439.18L438.5 150.5H440.47C441.2 150.5 441.78 150.33 442.19 149.99L442.2 149.98Z" fill="#FFE900"/>
<path d="M450.67 147.99C451.26 147.19 451.99 146.57 452.84 146.12C453.7 145.67 454.59 145.44 455.54 145.44C456.66 145.44 457.58 145.71 458.32 146.25C459.06 146.79 459.54 147.55 459.75 148.54H458.15C457.97 147.94 457.65 147.48 457.17 147.15C456.69 146.82 456.08 146.66 455.33 146.66C454.58 146.66 453.95 146.82 453.33 147.15C452.71 147.48 452.18 147.95 451.75 148.56C451.32 149.17 451.03 149.88 450.88 150.68C450.83 150.93 450.81 151.23 450.81 151.56C450.81 152.52 451.09 153.28 451.65 153.84C452.21 154.4 452.97 154.68 453.9 154.68C454.64 154.68 455.32 154.52 455.91 154.2C456.51 153.88 457 153.42 457.38 152.82H458.98C458.42 153.8 457.68 154.56 456.75 155.09C455.82 155.62 454.8 155.89 453.69 155.89C452.86 155.89 452.12 155.72 451.47 155.37C450.82 155.02 450.32 154.53 449.96 153.9C449.6 153.27 449.42 152.54 449.42 151.72C449.42 151.38 449.45 151.03 449.51 150.68C449.69 149.68 450.07 148.78 450.66 147.98L450.67 147.99Z" fill="#FFE900"/>
<path d="M462.87 155.38C462.22 155.02 461.72 154.52 461.36 153.87C461 153.22 460.82 152.48 460.82 151.65C460.82 150.49 461.08 149.44 461.61 148.5C462.13 147.56 462.86 146.81 463.78 146.27C464.7 145.73 465.73 145.45 466.86 145.45C467.72 145.45 468.48 145.63 469.13 145.99C469.78 146.35 470.28 146.85 470.64 147.49C470.99 148.13 471.17 148.87 471.17 149.7C471.17 150.87 470.91 151.92 470.38 152.87C469.86 153.82 469.13 154.56 468.21 155.1C467.29 155.64 466.26 155.92 465.11 155.92C464.26 155.92 463.51 155.74 462.86 155.38H462.87ZM467.63 154.05C468.31 153.6 468.84 153 469.22 152.25C469.6 151.5 469.79 150.68 469.79 149.8C469.79 148.83 469.51 148.07 468.95 147.51C468.39 146.95 467.63 146.67 466.67 146.67C465.81 146.67 465.04 146.89 464.36 147.34C463.68 147.79 463.15 148.38 462.77 149.13C462.39 149.88 462.2 150.69 462.2 151.58C462.2 152.55 462.48 153.32 463.03 153.88C463.58 154.44 464.34 154.72 465.3 154.72C466.16 154.72 466.93 154.5 467.61 154.05H467.63Z" fill="#FFE900"/>
<path d="M480.05 155.82H478.71L474.79 147.67L473.34 155.82H472L473.82 145.57H475.16L479.1 153.71L480.54 145.57H481.88L480.06 155.82H480.05Z" fill="#FFE900"/>
<path d="M483.51 155.24C482.92 154.78 482.62 154.17 482.62 153.41C482.62 153.26 482.62 153.16 482.63 153.09H483.95C483.92 153.57 484.07 153.98 484.39 154.32C484.71 154.66 485.21 154.83 485.87 154.83C486.53 154.83 487.06 154.68 487.46 154.37C487.85 154.07 488.05 153.64 488.05 153.09C488.05 152.76 487.95 152.48 487.76 152.25C487.57 152.02 487.33 151.83 487.05 151.68C486.77 151.53 486.39 151.36 485.91 151.17C485.32 150.93 484.85 150.71 484.49 150.51C484.13 150.31 483.83 150.03 483.59 149.67C483.34 149.32 483.23 148.87 483.25 148.33C483.25 147.76 483.4 147.26 483.71 146.82C484.02 146.38 484.43 146.04 484.97 145.8C485.5 145.56 486.11 145.44 486.8 145.44C487.49 145.44 488.04 145.55 488.53 145.78C489.01 146.01 489.38 146.32 489.62 146.72C489.86 147.12 489.97 147.57 489.94 148.07H488.54C488.56 147.82 488.5 147.57 488.37 147.34C488.24 147.11 488.03 146.91 487.75 146.77C487.47 146.62 487.13 146.55 486.71 146.55C486.07 146.55 485.56 146.7 485.17 147C484.78 147.3 484.59 147.71 484.59 148.23C484.59 148.53 484.68 148.8 484.86 149.02C485.04 149.24 485.27 149.43 485.54 149.58C485.81 149.73 486.19 149.91 486.67 150.12C487.25 150.37 487.72 150.59 488.09 150.8C488.46 151.01 488.77 151.29 489.02 151.64C489.27 151.99 489.4 152.43 489.4 152.96C489.4 153.53 489.25 154.04 488.96 154.48C488.67 154.93 488.25 155.28 487.7 155.54C487.15 155.8 486.51 155.93 485.79 155.93C484.84 155.93 484.07 155.7 483.48 155.25L483.51 155.24Z" fill="#FFE900"/>
<path d="M494 145.58L492.85 152.04C492.8 152.33 492.78 152.57 492.78 152.76C492.78 153.43 492.97 153.92 493.34 154.24C493.71 154.56 494.23 154.72 494.9 154.72C495.69 154.72 496.35 154.5 496.87 154.05C497.39 153.6 497.73 152.93 497.9 152.03L499.05 145.57H500.39L499.24 152.03C499.09 152.88 498.8 153.6 498.35 154.18C497.9 154.76 497.36 155.2 496.73 155.48C496.09 155.76 495.41 155.91 494.69 155.91C493.72 155.91 492.94 155.66 492.34 155.16C491.74 154.66 491.44 153.93 491.44 152.96C491.44 152.67 491.47 152.36 491.53 152.03L492.68 145.57H494.02L494 145.58Z" fill="#FFE900"/>
<path d="M502.32 154.79H505.9L505.71 155.82H500.79L502.61 145.58H503.95L502.32 154.79Z" fill="#FFE900"/>
<path d="M515.24 145.58L515.05 146.62H512.26L510.64 155.82H509.3L510.92 146.62H508.13L508.32 145.58H515.24Z" fill="#FFE900"/>
<path d="M518.24 145.58L516.42 155.82H515.08L516.9 145.58H518.24Z" fill="#FFE900"/>
<path d="M526.75 155.82H525.41L521.49 147.67L520.04 155.82H518.7L520.52 145.57H521.86L525.8 153.71L527.24 145.57H528.58L526.76 155.82H526.75Z" fill="#FFE900"/>
<path d="M530.59 147.99C531.18 147.19 531.91 146.57 532.77 146.12C533.63 145.67 534.54 145.45 535.49 145.45C536.59 145.45 537.5 145.72 538.24 146.26C538.98 146.8 539.46 147.56 539.67 148.54H538.07C537.89 147.94 537.56 147.48 537.08 147.15C536.6 146.82 536 146.66 535.28 146.66C534.56 146.66 533.89 146.82 533.26 147.15C532.63 147.48 532.1 147.95 531.67 148.56C531.24 149.17 530.95 149.88 530.8 150.68C530.75 150.93 530.73 151.23 530.73 151.56C530.73 152.52 531.01 153.28 531.58 153.84C532.15 154.4 532.91 154.68 533.86 154.68C534.87 154.68 535.75 154.38 536.5 153.78C537.25 153.18 537.77 152.36 538.06 151.33H533.98L534.17 150.27H539.68L539.49 151.3C539.26 152.14 538.87 152.91 538.29 153.61C537.71 154.31 537.03 154.86 536.22 155.27C535.41 155.68 534.56 155.88 533.66 155.88C532.82 155.88 532.07 155.71 531.42 155.36C530.77 155.01 530.26 154.52 529.9 153.88C529.54 153.24 529.36 152.51 529.36 151.69C529.36 151.36 529.39 151.01 529.45 150.66C529.63 149.66 530.01 148.76 530.6 147.96L530.59 147.99Z" fill="#FFE900"/>
<path d="M547.8 146.62L547.18 150.13H550.9L550.72 151.16H547L546.35 154.76H550.52L550.33 155.82H544.82L546.64 145.57H552.14L551.95 146.63H547.79L547.8 146.62Z" fill="#FFE900"/>
<path d="M560.42 155.82H559.08L555.16 147.67L553.71 155.82H552.37L554.19 145.57H555.53L559.47 153.71L560.91 145.57H562.25L560.43 155.82H560.42Z" fill="#FFE900"/>
<path d="M564.26 147.99C564.85 147.19 565.58 146.57 566.44 146.12C567.3 145.67 568.21 145.45 569.16 145.45C570.26 145.45 571.17 145.72 571.91 146.26C572.65 146.8 573.13 147.56 573.34 148.54H571.74C571.56 147.94 571.23 147.48 570.75 147.15C570.27 146.82 569.67 146.66 568.95 146.66C568.23 146.66 567.56 146.82 566.93 147.15C566.3 147.48 565.77 147.95 565.34 148.56C564.91 149.17 564.62 149.88 564.47 150.68C564.42 150.93 564.4 151.23 564.4 151.56C564.4 152.52 564.68 153.28 565.25 153.84C565.82 154.4 566.58 154.68 567.53 154.68C568.54 154.68 569.42 154.38 570.17 153.78C570.92 153.18 571.44 152.36 571.73 151.33H567.65L567.84 150.27H573.35L573.16 151.3C572.93 152.14 572.54 152.91 571.96 153.61C571.38 154.31 570.7 154.86 569.89 155.27C569.08 155.68 568.23 155.88 567.33 155.88C566.49 155.88 565.74 155.71 565.09 155.36C564.44 155.01 563.93 154.52 563.57 153.88C563.21 153.24 563.03 152.51 563.03 151.69C563.03 151.36 563.06 151.01 563.12 150.66C563.3 149.66 563.68 148.76 564.27 147.96L564.26 147.99Z" fill="#FFE900"/>
<path d="M577.28 145.58L575.46 155.82H574.12L575.94 145.58H577.28Z" fill="#FFE900"/>
<path d="M585.79 155.82H584.45L580.53 147.67L579.08 155.82H577.74L579.56 145.57H580.9L584.84 153.71L586.28 145.57H587.62L585.8 155.82H585.79Z" fill="#FFE900"/>
<path d="M591.03 146.62L590.41 150.13H594.13L593.95 151.16H590.23L589.58 154.76H593.75L593.56 155.82H588.05L589.87 145.57H595.37L595.18 146.63H591.02L591.03 146.62Z" fill="#FFE900"/>
<path d="M598.57 146.62L597.95 150.13H601.67L601.49 151.16H597.77L597.12 154.76H601.29L601.1 155.82H595.59L597.41 145.57H602.91L602.72 146.63H598.56L598.57 146.62Z" fill="#FFE900"/>
<path d="M610.56 146.24C611.08 146.68 611.34 147.27 611.34 148C611.34 148.12 611.32 148.31 611.28 148.59C611.15 149.3 610.84 149.92 610.34 150.46C609.84 151 609.17 151.36 608.33 151.53L610.14 155.82H608.54L606.84 151.63H605.24L604.49 155.82H603.15L604.97 145.58H608.26C609.28 145.58 610.05 145.8 610.57 146.24H610.56ZM609.94 148.1C609.94 147.63 609.79 147.27 609.48 147.01C609.17 146.76 608.7 146.63 608.06 146.63H606.11L605.42 150.55H607.39C608.11 150.55 608.69 150.37 609.11 150.01C609.53 149.65 609.8 149.18 609.9 148.58C609.93 148.4 609.94 148.24 609.94 148.1Z" fill="#FFE900"/>
<path d="M613.25 155.24C612.66 154.78 612.36 154.17 612.36 153.41C612.36 153.26 612.36 153.16 612.37 153.09H613.69C613.66 153.57 613.81 153.98 614.13 154.32C614.45 154.66 614.95 154.83 615.61 154.83C616.27 154.83 616.8 154.68 617.2 154.37C617.59 154.07 617.79 153.64 617.79 153.09C617.79 152.76 617.69 152.48 617.5 152.25C617.31 152.02 617.07 151.83 616.79 151.68C616.51 151.53 616.13 151.36 615.65 151.17C615.06 150.93 614.59 150.71 614.23 150.51C613.87 150.31 613.57 150.03 613.33 149.67C613.08 149.32 612.97 148.87 612.99 148.33C612.99 147.76 613.14 147.26 613.45 146.82C613.76 146.38 614.17 146.04 614.71 145.8C615.24 145.56 615.85 145.44 616.54 145.44C617.23 145.44 617.78 145.55 618.27 145.78C618.75 146.01 619.12 146.32 619.36 146.72C619.6 147.12 619.71 147.57 619.68 148.07H618.28C618.3 147.82 618.24 147.57 618.11 147.34C617.98 147.11 617.77 146.91 617.49 146.77C617.21 146.62 616.87 146.55 616.45 146.55C615.81 146.55 615.3 146.7 614.91 147C614.52 147.3 614.33 147.71 614.33 148.23C614.33 148.53 614.42 148.8 614.6 149.02C614.78 149.24 615.01 149.43 615.28 149.58C615.55 149.73 615.93 149.91 616.41 150.12C616.99 150.37 617.46 150.59 617.83 150.8C618.2 151.01 618.51 151.29 618.76 151.64C619.01 151.99 619.14 152.43 619.14 152.96C619.14 153.53 618.99 154.04 618.7 154.48C618.41 154.93 617.99 155.28 617.44 155.54C616.89 155.8 616.25 155.93 615.53 155.93C614.58 155.93 613.81 155.7 613.22 155.25L613.25 155.24Z" fill="#FFE900"/>
<path d="M321.94 119.97V135.33H319.93V128.37H312.11V135.33H310.1V119.97H312.11V126.71H319.93V119.97H321.94Z" fill="#2B99D1"/>
<path d="M338.05 119.97L332.25 135.33H329.94L324.14 119.97H326.28L331.11 133.21L335.94 119.97H338.06H338.05Z" fill="#2B99D1"/>
<path d="M349.33 131.92H342.63L341.4 135.34H339.28L344.83 120.07H347.14L352.67 135.34H350.55L349.32 131.92H349.33ZM348.76 130.29L345.98 122.53L343.2 130.29H348.75H348.76Z" fill="#2B99D1"/>
<path d="M355.37 123.6C356.05 122.4 356.97 121.47 358.14 120.79C359.31 120.11 360.6 119.78 362.03 119.78C363.7 119.78 365.17 120.18 366.41 120.99C367.65 121.8 368.57 122.94 369.14 124.43H366.74C366.31 123.5 365.7 122.79 364.9 122.29C364.1 121.79 363.14 121.54 362.02 121.54C360.9 121.54 359.98 121.79 359.13 122.29C358.28 122.79 357.61 123.5 357.12 124.42C356.64 125.34 356.39 126.41 356.39 127.65C356.39 128.89 356.63 129.94 357.12 130.86C357.61 131.78 358.27 132.49 359.13 132.99C359.98 133.49 360.94 133.74 362.02 133.74C363.1 133.74 364.09 133.49 364.9 133C365.7 132.51 366.31 131.8 366.74 130.87H369.14C368.57 132.34 367.66 133.47 366.41 134.27C365.16 135.07 363.7 135.47 362.03 135.47C360.61 135.47 359.31 135.14 358.14 134.47C356.97 133.8 356.05 132.87 355.37 131.68C354.69 130.49 354.36 129.15 354.36 127.65C354.36 126.15 354.7 124.8 355.37 123.61V123.6Z" fill="#2B99D1"/>
<path d="M380 121.6V126.73H385.6V128.38H380V133.67H386.26V135.32H378V119.94H386.26V121.59H380V121.6Z" fill="#2B99D1"/>
<path d="M401.38 135.33H399.38L391.31 123.1V135.33H389.3V119.95H391.31L399.38 132.16V119.95H401.38V135.33Z" fill="#2B99D1"/>
<path d="M416.43 124.43C416 123.53 415.39 122.84 414.58 122.35C413.77 121.86 412.83 121.61 411.76 121.61C410.69 121.61 409.72 121.86 408.86 122.35C408 122.84 407.32 123.55 406.83 124.47C406.34 125.39 406.09 126.45 406.09 127.65C406.09 128.85 406.34 129.91 406.83 130.82C407.32 131.73 408 132.43 408.86 132.92C409.72 133.41 410.69 133.66 411.76 133.66C413.26 133.66 414.49 133.21 415.46 132.32C416.43 131.42 417 130.21 417.16 128.68H411.03V127.05H419.29V128.59C419.17 129.85 418.78 131.01 418.1 132.06C417.42 133.11 416.54 133.94 415.43 134.55C414.33 135.16 413.1 135.46 411.75 135.46C410.33 135.46 409.02 135.13 407.85 134.46C406.67 133.79 405.75 132.86 405.06 131.67C404.38 130.48 404.03 129.14 404.03 127.64C404.03 126.14 404.37 124.79 405.06 123.6C405.74 122.4 406.67 121.47 407.85 120.8C409.02 120.13 410.33 119.8 411.75 119.8C413.38 119.8 414.82 120.2 416.08 121.01C417.34 121.82 418.25 122.96 418.82 124.43H416.42H416.43Z" fill="#2B99D1"/>
<path d="M423.94 119.97V135.33H421.93V119.97H423.94Z" fill="#2B99D1"/>
<path d="M439.43 135.33H437.43L429.36 123.1V135.33H427.35V119.95H429.36L437.43 132.16V119.95H439.43V135.33Z" fill="#2B99D1"/>
<path d="M444.85 121.6V126.73H450.45V128.38H444.85V133.67H451.11V135.32H442.85V119.94H451.11V121.59H444.85V121.6Z" fill="#2B99D1"/>
<path d="M456.16 121.6V126.73H461.76V128.38H456.16V133.67H462.42V135.32H454.16V119.94H462.42V121.59H456.16V121.6Z" fill="#2B99D1"/>
<path d="M473.54 135.33L469.88 129.05H467.46V135.33H465.45V119.97H470.41C471.57 119.97 472.55 120.17 473.35 120.56C474.15 120.95 474.75 121.49 475.15 122.17C475.55 122.85 475.74 123.62 475.74 124.48C475.74 125.54 475.44 126.47 474.83 127.28C474.22 128.09 473.31 128.62 472.09 128.89L475.95 135.32H473.55L473.54 135.33ZM467.46 127.44H470.41C471.5 127.44 472.31 127.17 472.86 126.64C473.4 126.1 473.68 125.39 473.68 124.49C473.68 123.59 473.41 122.87 472.88 122.37C472.34 121.87 471.52 121.62 470.42 121.62H467.47V127.44H467.46Z" fill="#2B99D1"/>
<path d="M480.86 119.97V135.33H478.85V119.97H480.86Z" fill="#2B99D1"/>
<path d="M496.35 135.33H494.35L486.28 123.1V135.33H484.27V119.95H486.28L494.35 132.16V119.95H496.35V135.33Z" fill="#2B99D1"/>
<path d="M511.4 124.43C510.97 123.53 510.36 122.84 509.55 122.35C508.74 121.86 507.8 121.61 506.73 121.61C505.66 121.61 504.69 121.86 503.83 122.35C502.97 122.84 502.29 123.55 501.8 124.47C501.31 125.39 501.06 126.45 501.06 127.65C501.06 128.85 501.31 129.91 501.8 130.82C502.29 131.73 502.97 132.43 503.83 132.92C504.69 133.41 505.66 133.66 506.73 133.66C508.23 133.66 509.46 133.21 510.43 132.32C511.4 131.42 511.97 130.21 512.13 128.68H506V127.05H514.26V128.59C514.14 129.85 513.75 131.01 513.07 132.06C512.39 133.11 511.51 133.94 510.4 134.55C509.3 135.16 508.07 135.46 506.72 135.46C505.3 135.46 503.99 135.13 502.82 134.46C501.64 133.79 500.72 132.86 500.03 131.67C499.35 130.48 499 129.14 499 127.64C499 126.14 499.34 124.79 500.03 123.6C500.71 122.4 501.64 121.47 502.82 120.8C503.99 120.13 505.3 119.8 506.72 119.8C508.35 119.8 509.79 120.2 511.05 121.01C512.31 121.82 513.22 122.96 513.79 124.43H511.39H511.4Z" fill="#2B99D1"/>
<path d="M524.94 134.95C524.14 134.59 523.51 134.09 523.06 133.45C522.6 132.81 522.37 132.07 522.35 131.24H524.49C524.56 131.96 524.86 132.57 525.38 133.06C525.9 133.55 526.66 133.8 527.66 133.8C528.66 133.8 529.37 133.56 529.92 133.08C530.47 132.6 530.75 131.99 530.75 131.24C530.75 130.65 530.59 130.18 530.27 129.81C529.95 129.44 529.54 129.16 529.06 128.97C528.57 128.78 527.92 128.57 527.1 128.35C526.09 128.09 525.27 127.82 524.66 127.56C524.05 127.3 523.53 126.88 523.1 126.31C522.67 125.75 522.45 124.98 522.45 124.03C522.45 123.19 522.66 122.45 523.09 121.8C523.52 121.15 524.11 120.65 524.89 120.3C525.66 119.95 526.55 119.77 527.55 119.77C528.99 119.77 530.17 120.13 531.09 120.85C532.01 121.57 532.53 122.52 532.64 123.71H530.44C530.37 123.12 530.06 122.6 529.51 122.16C528.97 121.71 528.25 121.49 527.35 121.49C526.51 121.49 525.83 121.71 525.3 122.14C524.77 122.57 524.51 123.18 524.51 123.96C524.51 124.52 524.67 124.97 524.98 125.33C525.3 125.68 525.69 125.95 526.15 126.13C526.61 126.31 527.26 126.52 528.1 126.76C529.11 127.04 529.93 127.31 530.55 127.59C531.17 127.86 531.7 128.28 532.14 128.85C532.58 129.42 532.8 130.18 532.8 131.15C532.8 131.9 532.6 132.6 532.21 133.27C531.82 133.94 531.23 134.47 530.45 134.88C529.67 135.29 528.75 135.5 527.7 135.5C526.65 135.5 525.78 135.32 524.98 134.96L524.94 134.95Z" fill="#2B99D1"/>
<path d="M537.73 121.6V126.73H543.33V128.38H537.73V133.67H543.99V135.32H535.73V119.94H543.99V121.59H537.73V121.6Z" fill="#2B99D1"/>
<path d="M555.12 135.33L551.46 129.05H549.04V135.33H547.03V119.97H551.99C553.15 119.97 554.13 120.17 554.93 120.56C555.73 120.95 556.33 121.49 556.73 122.17C557.13 122.85 557.32 123.62 557.32 124.48C557.32 125.54 557.02 126.47 556.41 127.28C555.8 128.09 554.89 128.62 553.67 128.89L557.53 135.32H555.13L555.12 135.33ZM549.04 127.44H551.99C553.08 127.44 553.89 127.17 554.44 126.64C554.98 126.1 555.26 125.39 555.26 124.49C555.26 123.59 554.99 122.87 554.46 122.37C553.92 121.87 553.1 121.62 552 121.62H549.05V127.44H549.04Z" fill="#2B99D1"/>
<path d="M573.12 119.97L567.32 135.33H565.01L559.21 119.97H561.35L566.18 133.21L571.01 119.97H573.13H573.12Z" fill="#2B99D1"/>
<path d="M577.33 119.97V135.33H575.32V119.97H577.33Z" fill="#2B99D1"/>
<path d="M581.01 123.6C581.69 122.4 582.61 121.47 583.78 120.79C584.95 120.11 586.24 119.78 587.67 119.78C589.34 119.78 590.81 120.18 592.05 120.99C593.29 121.8 594.21 122.94 594.78 124.43H592.38C591.95 123.5 591.34 122.79 590.54 122.29C589.74 121.79 588.78 121.54 587.66 121.54C586.54 121.54 585.62 121.79 584.77 122.29C583.92 122.79 583.25 123.5 582.76 124.42C582.28 125.34 582.03 126.41 582.03 127.65C582.03 128.89 582.27 129.94 582.76 130.86C583.25 131.78 583.91 132.49 584.77 132.99C585.62 133.49 586.58 133.74 587.66 133.74C588.74 133.74 589.73 133.49 590.54 133C591.34 132.51 591.95 131.8 592.38 130.87H594.78C594.21 132.34 593.3 133.47 592.05 134.27C590.8 135.07 589.34 135.47 587.67 135.47C586.25 135.47 584.95 135.14 583.78 134.47C582.61 133.8 581.69 132.87 581.01 131.68C580.33 130.49 580 129.15 580 127.65C580 126.15 580.34 124.8 581.01 123.61V123.6Z" fill="#2B99D1"/>
<path d="M599.76 121.6V126.73H605.36V128.38H599.76V133.67H606.02V135.32H597.76V119.94H606.02V121.59H599.76V121.6Z" fill="#2B99D1"/>
<path d="M611.21 134.95C610.41 134.59 609.78 134.09 609.33 133.45C608.87 132.81 608.64 132.07 608.62 131.24H610.76C610.83 131.96 611.13 132.57 611.65 133.06C612.17 133.55 612.93 133.8 613.93 133.8C614.93 133.8 615.64 133.56 616.19 133.08C616.74 132.6 617.02 131.99 617.02 131.24C617.02 130.65 616.86 130.18 616.54 129.81C616.22 129.44 615.81 129.16 615.33 128.97C614.84 128.78 614.19 128.57 613.37 128.35C612.36 128.09 611.54 127.82 610.93 127.56C610.32 127.3 609.8 126.88 609.37 126.31C608.94 125.75 608.72 124.98 608.72 124.03C608.72 123.19 608.93 122.45 609.36 121.8C609.79 121.15 610.38 120.65 611.16 120.3C611.93 119.95 612.82 119.77 613.82 119.77C615.26 119.77 616.44 120.13 617.36 120.85C618.28 121.57 618.8 122.52 618.91 123.71H616.71C616.64 123.12 616.33 122.6 615.78 122.16C615.24 121.71 614.52 121.49 613.62 121.49C612.78 121.49 612.1 121.71 611.57 122.14C611.04 122.57 610.78 123.18 610.78 123.96C610.78 124.52 610.94 124.97 611.25 125.33C611.57 125.68 611.96 125.95 612.42 126.13C612.88 126.31 613.53 126.52 614.37 126.76C615.38 127.04 616.2 127.31 616.82 127.59C617.44 127.86 617.97 128.28 618.41 128.85C618.85 129.42 619.07 130.18 619.07 131.15C619.07 131.9 618.87 132.6 618.48 133.27C618.09 133.94 617.5 134.47 616.72 134.88C615.94 135.29 615.02 135.5 613.97 135.5C612.92 135.5 612.05 135.32 611.25 134.96L611.21 134.95Z" fill="#2B99D1"/>
<path d="M203.79 106.46V103.07L226.07 38.65H233.82L256.1 103.07V106.46H250.29L244.48 89.02H215.42L209.61 106.46H203.8H203.79ZM217.35 82.72H242.54L229.95 45.91L217.36 82.72H217.35Z" fill="#2B99D1"/>
<path d="M267.24 106.46V38.65H273.54V106.46H267.24Z" fill="#2B99D1"/>
<path d="M291.94 106.46V38.65H322.45C326.84 38.65 330.36 39.97 333.01 42.62C335.66 45.27 336.98 48.79 336.98 53.18V65.29C336.98 70.85 334.78 74.82 330.39 77.21C328.32 78.37 326.16 79.08 323.9 79.34L337.95 103.07V106.46H332.14L317.61 79.82H298.24V106.46H291.94ZM298.24 73.52H321.97C324.81 73.52 326.97 72.76 328.46 71.24C329.95 69.72 330.69 67.58 330.69 64.8V53.66C330.69 47.85 327.78 44.94 321.97 44.94H298.24V73.52Z" fill="#2B99D1"/>
<path d="M353.45 106.46V38.65H393.65V43.01L391.71 44.95H359.74V68.68H384.44V74.98H359.74V100.17H393.65V106.47H353.45V106.46Z" fill="#2B99D1"/>
<path d="M399.47 106.46V103.07L418.36 71.59L401.41 42.04V38.65H406.74L422.72 67.71H423.2L439.18 38.65H444.51V42.04L427.56 71.59L446.45 103.07V106.46H441.12L423.2 75.46H422.72L404.8 106.46H399.47Z" fill="#2B99D1"/>
<path d="M454.2 106.46V100.16H483.26C489.07 100.16 491.98 97.25 491.98 91.44V85.14C491.98 80.49 489.07 77.58 483.26 76.42L466.79 73.03C462.85 72.26 459.77 70.59 457.54 68.04C455.31 65.49 454.2 62.31 454.2 58.5V53.17C454.2 48.78 455.52 45.26 458.17 42.61C460.82 39.96 464.34 38.64 468.73 38.64H496.34V43L494.5 44.94H469.22C463.41 44.94 460.5 47.85 460.5 53.66V58.02C460.5 62.67 463.41 65.58 469.22 66.74L485.69 70.13C489.63 70.97 492.71 72.65 494.94 75.17C497.17 77.69 498.28 80.85 498.28 84.66V91.93C498.28 96.32 496.96 99.84 494.31 102.49C491.66 105.14 488.14 106.46 483.75 106.46H454.2Z" fill="#2B99D1"/>
<path d="M509.42 92.89V38.64H523.95V88.05C523.95 91.93 525.89 93.86 529.76 93.86H540.42C544.3 93.86 546.23 91.92 546.23 88.05V38.64H560.76V92.89C560.76 97.28 559.44 100.8 556.79 103.45C554.14 106.1 550.62 107.42 546.23 107.42H523.95C519.56 107.42 516.04 106.1 513.39 103.45C510.74 100.8 509.42 97.28 509.42 92.89Z" fill="#FFE900"/>
<path d="M570.44 106.46V92.9H599.99C601.48 92.9 602.65 92.46 603.53 91.59C604.4 90.72 604.84 89.54 604.84 88.05V85.63C604.84 82.47 603.22 80.53 600 79.82L583.53 76.43C579.59 75.66 576.42 73.91 574.04 71.2C571.65 68.49 570.46 65.23 570.46 61.42V53.19C570.46 48.8 571.78 45.28 574.43 42.63C577.08 39.98 580.6 38.66 584.99 38.66H617.44V47.86L613.08 52.22H589.83C588.34 52.22 587.17 52.66 586.29 53.53C585.42 54.4 584.98 55.58 584.98 57.07V58.04C584.98 61.21 586.59 63.14 589.82 63.85L606.29 67.24C610.23 68.01 613.39 69.76 615.78 72.47C618.17 75.18 619.36 78.44 619.36 82.25V91.94C619.36 96.33 618.04 99.85 615.39 102.5C612.74 105.15 609.22 106.47 604.83 106.47H570.44V106.46Z" fill="#FFE900"/>
<path d="M124.22 61.94L109.28 85.17L170.33 173.14H200.57L124.22 61.94Z" fill="#FFE900"/>
<path d="M98.18 -0.300003L-0.570007 173.14H87.8L114.26 126.67L97.35 103.43L71.11 148.25H40.92L112.29 25.19L98.18 -0.300003Z" fill="#2B99D1" stroke="#2B99D1" stroke-width="1.66" stroke-miterlimit="10"/>
</g>
<defs>
<clipPath id="clip0_2003_2477">
<rect width="619.7" height="175.97" fill="white"/>
</clipPath>
</defs>
</svg>
