<svg width="231" height="220" viewBox="0 0 231 220" fill="none" xmlns="http://www.w3.org/2000/svg">
<g clip-path="url(#clip0_6_143)">
<path d="M0 218.54V216.66L12.35 180.96H16.64L28.99 216.66V218.54H25.77L22.55 208.88H6.44L3.22 218.54H0ZM7.52 205.38H21.48L14.5 184.98L7.52 205.38Z" fill="white"/>
<path d="M35.16 218.54V180.96H38.65V218.54H35.16Z" fill="white"/>
<path d="M48.85 218.54V180.96H65.76C68.19 180.96 70.14 181.69 71.61 183.16C73.08 184.63 73.81 186.58 73.81 189.01V195.72C73.81 198.8 72.59 201 70.16 202.32C69.01 202.96 67.82 203.36 66.56 203.5L74.34 216.65V218.53H71.12L63.07 203.77H52.33V218.53H48.84L48.85 218.54ZM52.34 200.28H65.49C67.06 200.28 68.26 199.86 69.09 199.02C69.91 198.18 70.32 196.99 70.32 195.45V189.28C70.32 186.06 68.71 184.45 65.49 184.45H52.34V200.29V200.28Z" fill="white"/>
<path d="M82.94 218.54V180.96H105.22V183.38L104.15 184.45H86.43V197.6H100.12V201.09H86.43V215.05H105.22V218.54H82.94Z" fill="white"/>
<path d="M108.45 218.54V216.66L118.92 199.21L109.52 182.84V180.96H112.47L121.33 197.07H121.6L130.46 180.96H133.41V182.84L124.01 199.21L134.48 216.66V218.54H131.53L121.6 201.36H121.33L111.4 218.54H108.45Z" fill="white"/>
<path d="M138.78 218.54V215.05H154.89C158.11 215.05 159.72 213.44 159.72 210.22V206.73C159.72 204.15 158.11 202.54 154.89 201.9L145.76 200.02C143.58 199.59 141.87 198.67 140.63 197.26C139.4 195.85 138.78 194.08 138.78 191.97V189.02C138.78 186.59 139.51 184.64 140.98 183.17C142.45 181.7 144.4 180.97 146.83 180.97H162.13V183.39L161.11 184.46H147.1C143.88 184.46 142.27 186.07 142.27 189.29V191.71C142.27 194.29 143.88 195.9 147.1 196.54L156.23 198.42C158.41 198.88 160.12 199.82 161.36 201.21C162.59 202.61 163.21 204.36 163.21 206.47V210.5C163.21 212.93 162.48 214.88 161.01 216.35C159.54 217.82 157.59 218.55 155.16 218.55H138.79L138.78 218.54Z" fill="white"/>
<path d="M169.38 211.02V180.96H177.43V208.34C177.43 210.49 178.5 211.56 180.65 211.56H186.56C188.71 211.56 189.78 210.49 189.78 208.34V180.96H197.83V211.02C197.83 213.45 197.1 215.4 195.63 216.87C194.16 218.34 192.21 219.07 189.78 219.07H177.43C175 219.07 173.05 218.34 171.58 216.87C170.11 215.4 169.38 213.45 169.38 211.02Z" fill="#FFE900"/>
<path d="M203.2 218.54V211.02H219.57C220.39 211.02 221.05 210.78 221.53 210.3C222.01 209.82 222.25 209.16 222.25 208.34V207C222.25 205.25 221.36 204.17 219.57 203.78L210.44 201.9C208.26 201.47 206.5 200.5 205.18 199C203.86 197.5 203.19 195.69 203.19 193.58V189.02C203.19 186.59 203.92 184.64 205.39 183.17C206.86 181.7 208.81 180.97 211.24 180.97H229.23V186.07L226.81 188.49H213.93C213.11 188.49 212.45 188.73 211.97 189.21C211.49 189.69 211.25 190.35 211.25 191.17V191.71C211.25 193.46 212.14 194.54 213.93 194.93L223.06 196.81C225.24 197.24 227 198.21 228.32 199.71C229.64 201.21 230.31 203.02 230.31 205.13V210.5C230.31 212.93 229.58 214.88 228.11 216.35C226.64 217.82 224.69 218.55 222.26 218.55H203.2V218.54Z" fill="#FFE900"/>
<path d="M140.63 59.9099L126.64 81.6799L183.83 164.1H212.17L140.63 59.9099Z" fill="#FFE900"/>
<path d="M116.24 1.58997L23.71 164.1H106.51L131.3 120.55L115.46 98.78L90.87 140.77H62.58L129.45 25.48L116.24 1.58997Z" fill="white" stroke="white" stroke-width="1.56" stroke-miterlimit="10"/>
</g>
<defs>
<clipPath id="clip0_6_143">
<rect width="230.31" height="219.07" fill="white"/>
</clipPath>
</defs>
</svg>
