<svg width="48" height="48" viewBox="0 0 48 48" fill="none" xmlns="http://www.w3.org/2000/svg">
<path d="M31.2515 23.6974L19.7203 15.3537C19.6642 15.313 19.598 15.2886 19.529 15.2833C19.4599 15.2779 19.3907 15.2918 19.3291 15.3233C19.2674 15.3549 19.2157 15.4029 19.1797 15.462C19.1437 15.5212 19.1247 15.5891 19.1249 15.6584V17.8568C19.1249 18.3349 19.3546 18.7896 19.7437 19.0709L26.5593 24.0021L19.7437 28.9333C19.3546 29.2146 19.1249 29.6646 19.1249 30.1474V32.3458C19.1249 32.6505 19.4718 32.8286 19.7203 32.6505L31.2515 24.3068C31.4578 24.1568 31.4578 23.8474 31.2515 23.6974Z" fill="url(#paint0_linear_2211_1520)"/>
<path d="M24 3C12.4031 3 3 12.4031 3 24C3 35.5969 12.4031 45 24 45C35.5969 45 45 35.5969 45 24C45 12.4031 35.5969 3 24 3ZM24 41.4375C14.3719 41.4375 6.5625 33.6281 6.5625 24C6.5625 14.3719 14.3719 6.5625 24 6.5625C33.6281 6.5625 41.4375 14.3719 41.4375 24C41.4375 33.6281 33.6281 41.4375 24 41.4375Z" fill="url(#paint1_linear_2211_1520)"/>
<defs>
<linearGradient id="paint0_linear_2211_1520" x1="3" y1="24" x2="45" y2="24" gradientUnits="userSpaceOnUse">
<stop stop-color="#323641"/>
<stop offset="1" stop-color="#2B99D1"/>
</linearGradient>
<linearGradient id="paint1_linear_2211_1520" x1="3" y1="24" x2="45" y2="24" gradientUnits="userSpaceOnUse">
<stop stop-color="#323641"/>
<stop offset="1" stop-color="#2B99D1"/>
</linearGradient>
</defs>
</svg>
