<svg width="61" height="61" viewBox="0 0 61 61" fill="none" xmlns="http://www.w3.org/2000/svg">
<g clip-path="url(#clip0_2219_301)">
<path d="M22.5731 50.6955L9.78462 37.907C9.49532 37.6177 9.06188 37.53 8.6859 37.6883C8.30992 37.8445 8.06396 38.2124 8.06396 38.6197V51.4082C8.06396 51.9656 8.51555 52.4162 9.07196 52.4162H21.8605C22.2677 52.4162 22.6356 52.1712 22.7919 51.7942C22.9481 51.4172 22.8614 50.9838 22.5731 50.6955ZM10.08 50.4002V41.054L19.4261 50.4002H10.08Z" fill="#2B99D1"/>
<path d="M54.4318 28.2243H51.6568C51.6014 28.0842 51.5429 27.9451 51.4814 27.805L53.445 25.8414C53.8391 25.4472 53.8391 24.8102 53.445 24.4161L49.1691 20.1401C48.7749 19.746 48.1369 19.746 47.7427 20.1391L45.7781 22.1027C45.639 22.0402 45.4989 21.9828 45.3588 21.9273V19.1523C45.3588 18.5949 44.9072 18.1443 44.3508 18.1443H38.3028C37.7464 18.1443 37.2948 18.5949 37.2948 19.1523V21.9283C37.1547 21.9838 37.0156 22.0412 36.8755 22.1037L34.9109 20.1401C34.5168 19.746 33.8797 19.746 33.4856 20.1401L29.2096 24.4161C28.8155 24.8102 28.8155 25.4472 29.2096 25.8414L31.1732 27.805C31.1117 27.9451 31.0533 28.0842 30.9978 28.2243H28.2238C27.6674 28.2243 27.2158 28.6749 27.2158 29.2323V35.2803C27.2158 35.8377 27.6674 36.2883 28.2238 36.2883H30.9988C31.0543 36.4284 31.1127 36.5675 31.1742 36.7076L29.2107 38.6712C28.8165 39.0653 28.8165 39.7024 29.2107 40.0965L33.4866 44.3724C33.8807 44.7666 34.5178 44.7666 34.9119 44.3724L36.8765 42.4089C37.0156 42.4714 37.1557 42.5288 37.2958 42.5843V45.3603C37.2958 45.9177 37.7474 46.3683 38.3038 46.3683H44.3518C44.9082 46.3683 45.3598 45.9177 45.3598 45.3603V42.5843C45.4999 42.5288 45.639 42.4714 45.7791 42.4089L47.7437 44.3724C48.1379 44.7666 48.7749 44.7666 49.1691 44.3724L53.445 40.0965C53.8391 39.7024 53.8391 39.0653 53.445 38.6712L51.4814 36.7076C51.5429 36.5675 51.6014 36.4284 51.6568 36.2883H54.4318C54.9882 36.2883 55.4398 35.8377 55.4398 35.2803V29.2323C55.4398 28.6749 54.9882 28.2243 54.4318 28.2243ZM53.4238 34.2723H50.9451C50.5047 34.2723 50.1156 34.5576 49.9835 34.9769C49.8293 35.4668 49.6227 35.9617 49.3686 36.4476C49.164 36.8376 49.2376 37.3154 49.5491 37.6269L51.306 39.3839L48.4554 42.2345L46.6974 40.4775C46.386 40.1661 45.9092 40.0935 45.5181 40.2961C45.0302 40.5511 44.5353 40.7578 44.0484 40.911C43.6281 41.044 43.3428 41.4331 43.3428 41.8726V44.3523H39.3108V41.8736C39.3108 41.4331 39.0255 41.045 38.6052 40.912C38.1183 40.7588 37.6234 40.5521 37.1355 40.2971C36.7455 40.0945 36.2677 40.1671 35.9562 40.4785L34.1982 42.2355L31.3476 39.3849L33.1046 37.6279C33.416 37.3164 33.4896 36.8387 33.285 36.4486C33.031 35.9627 32.8243 35.4678 32.6701 34.9779C32.5401 34.5576 32.151 34.2723 31.7105 34.2723H29.2318V30.2403H31.7105C32.151 30.2403 32.5401 29.955 32.6721 29.5357C32.8263 29.0458 33.033 28.5509 33.287 28.065C33.4916 27.6749 33.418 27.1971 33.1066 26.8857L31.3496 25.1287L34.2003 22.2781L35.9582 24.035C36.2697 24.3475 36.7475 24.4201 37.1376 24.2165C37.6254 23.9615 38.1204 23.7548 38.6072 23.6016C39.0276 23.4685 39.3128 23.0795 39.3128 22.64V20.1603H43.3448V22.639C43.3448 23.0795 43.6301 23.4675 44.0504 23.6006C44.5373 23.7538 45.0322 23.9604 45.5201 24.2155C45.9112 24.4191 46.388 24.3465 46.6995 24.034L48.4574 22.2771L51.308 25.1277L49.5511 26.8847C49.2376 27.1961 49.164 27.6749 49.3686 28.065C49.6227 28.5509 49.8293 29.0458 49.9835 29.5357C50.1156 29.955 50.5047 30.2403 50.9451 30.2403H53.4238V34.2723Z" fill="#2B99D1"/>
<path d="M41.328 26.2083C37.9926 26.2083 35.28 28.9208 35.28 32.2563C35.28 35.5917 37.9926 38.3043 41.328 38.3043C44.6635 38.3043 47.376 35.5917 47.376 32.2563C47.376 28.9208 44.6635 26.2083 41.328 26.2083ZM41.328 36.2883C39.1044 36.2883 37.296 34.4799 37.296 32.2563C37.296 30.0326 39.1044 28.2243 41.328 28.2243C43.5517 28.2243 45.36 30.0326 45.36 32.2563C45.36 34.4799 43.5517 36.2883 41.328 36.2883Z" fill="#2B99D1"/>
<path d="M60.4679 11.0255C60.4618 10.9338 60.4437 10.8461 60.4135 10.7594C60.4024 10.7271 60.3943 10.6949 60.3792 10.6636C60.3308 10.5598 60.2703 10.462 60.1867 10.3784C60.1857 10.3774 60.1847 10.3753 60.1836 10.3743L50.1057 0.296352C50.1047 0.295344 50.1026 0.294336 50.1006 0.29232C50.0159 0.208656 49.9172 0.147168 49.8133 0.098784C49.7851 0.08568 49.7559 0.078624 49.7267 0.067536C49.6359 0.03528 49.5432 0.016128 49.4464 0.011088C49.4273 0.01008 49.4111 0 49.392 0H15.12C14.5636 0 14.112 0.450576 14.112 1.008V5.04H1.008C0.451584 5.04 0 5.49058 0 6.048V14.112C0 14.6694 0.451584 15.12 1.008 15.12H14.112V30.8307L1.72066 18.4393C1.43136 18.15 0.99792 18.0624 0.621936 18.2206C0.245952 18.3758 0 18.7448 0 19.152V59.472C0 60.0294 0.451584 60.48 1.008 60.48H41.328H59.472C60.0284 60.48 60.48 60.0294 60.48 59.472V11.088C60.48 11.0658 60.4689 11.0477 60.4679 11.0255ZM50.4 3.44131L57.0387 10.08H50.4V3.44131ZM7.056 13.104H2.016V7.056H7.056V13.104ZM9.072 13.104V7.056H15.12H32.256V13.104H15.12H9.072ZM2.016 58.464V21.5853L7.64669 27.216L5.33534 29.5273L6.76065 30.9527L9.072 28.6413L11.6787 31.248L9.36734 33.5593L10.7927 34.9847L13.104 32.6733L14.4073 33.9767L15.7107 35.28L13.3993 37.5913L14.8247 39.0167L17.136 36.7053L19.7427 39.312L17.4313 41.6233L18.8567 43.0487L21.168 40.7373L23.7747 43.344L21.4633 45.6553L22.8887 47.0807L25.2 44.7693L27.8067 47.376L25.4953 49.6873L26.9207 51.1127L29.232 48.8013L31.8387 51.408L29.5273 53.7193L30.9527 55.1446L33.264 52.8333L38.8947 58.464H2.016ZM58.464 58.464H41.7453L16.128 32.8467V15.12H33.264C33.4394 15.12 33.6118 15.0736 33.764 14.9869L40.82 10.9549C41.1345 10.7755 41.328 10.4409 41.328 10.08C41.328 9.71914 41.1345 9.38448 40.82 9.20506L33.764 5.17306C33.6118 5.08637 33.4394 5.04 33.264 5.04H16.128V2.016H48.384V11.088C48.384 11.6454 48.8356 12.096 49.392 12.096H58.464V58.464ZM34.272 12.3752V7.78478L38.2879 10.08L34.272 12.3752Z" fill="#2B99D1"/>
<path d="M56.4479 54.4321H54.4319V56.4481H56.4479V54.4321Z" fill="#2B99D1"/>
<path d="M52.4159 54.4321H50.3999V56.4481H52.4159V54.4321Z" fill="#2B99D1"/>
<path d="M48.3842 54.4321H46.3682V56.4481H48.3842V54.4321Z" fill="#2B99D1"/>
</g>
<defs>
<clipPath id="clip0_2219_301">
<rect width="60.48" height="60.48" fill="white"/>
</clipPath>
</defs>
</svg>
