<svg width="61" height="61" viewBox="0 0 61 61" fill="none" xmlns="http://www.w3.org/2000/svg">
<path d="M56.7212 41.6391C58.4327 39.9274 59.005 37.5309 58.252 35.2284C58.1499 34.9161 57.8929 34.6795 57.5735 34.603C57.2536 34.5267 56.9176 34.6216 56.6852 34.8539L53.269 38.2703L51.6293 37.8308L51.1898 36.191L54.6063 32.7747C54.8385 32.5423 54.9335 32.2062 54.8571 31.8865C54.7808 31.5671 54.544 31.3101 54.2317 31.208C51.9294 30.455 49.5327 31.0271 47.8208 32.7389C46.8793 33.6804 46.2829 34.8985 46.0729 36.1812C42.9987 33.2856 39.2321 31.2719 35.1595 30.3144C38.6731 28.6119 41.2921 25.3162 42.0302 21.3047H42.207C43.6537 21.3047 44.8307 20.1279 44.8307 18.6812C44.8307 17.4565 43.9872 16.4252 42.8507 16.1375C42.8509 16.1076 42.851 16.0779 42.851 16.0481C42.851 10.5385 39.4663 5.67435 34.3627 3.73996C34.2861 3.28746 34.098 2.87183 33.803 2.51208C32.8789 1.38509 31.0878 1.03987 29.7479 0.94866C29.705 0.945824 29.6623 0.945824 29.6194 0.94866C28.2795 1.03987 26.4884 1.38521 25.5643 2.51208C25.2691 2.87195 25.0812 3.28746 25.0046 3.73996C19.9011 5.67435 16.5162 10.5386 16.5162 16.0481C16.5162 16.0779 16.5163 16.1076 16.5166 16.1375C15.38 16.4252 14.5366 17.4565 14.5366 18.6812C14.5366 20.1278 15.7136 21.3047 17.1602 21.3047H17.3371C18.0747 25.3137 20.691 28.6079 24.2012 30.3112C21.8305 30.8676 19.5559 31.7857 17.4477 33.0445L17.3646 32.8286C17.2243 32.4638 16.8736 32.223 16.4826 32.223H13.2357C12.8446 32.223 12.4941 32.4638 12.3536 32.8286L11.7623 34.3648C10.9449 34.5988 10.1582 34.925 9.41369 35.3386L7.90829 34.6699C7.5509 34.5113 7.1329 34.589 6.85632 34.8653L4.56029 37.1614C4.28383 37.4379 4.20621 37.856 4.36487 38.2133L5.03346 39.7186C4.61971 40.4633 4.29351 41.25 4.05959 42.0674L2.52358 42.6586C2.15875 42.799 1.91797 43.1497 1.91797 43.5407V46.7876C1.91797 47.1786 2.15875 47.5292 2.52358 47.6697L4.05935 48.2609C4.2934 49.0788 4.6196 49.8656 5.03322 50.6103L4.36487 52.1151C4.20621 52.4724 4.28383 52.8905 4.5604 53.1671L6.85644 55.463C7.13302 55.7394 7.55101 55.817 7.90829 55.6584L9.41369 54.9897C10.1582 55.4033 10.9449 55.7295 11.7623 55.9635L12.3536 57.4997C12.494 57.8645 12.8446 58.1053 13.2357 58.1053H16.4826C16.8736 58.1053 17.2242 57.8645 17.3646 57.4997L17.9558 55.9639C18.7738 55.7299 19.5606 55.4037 20.3051 54.9901L21.8101 55.6584C22.1675 55.8172 22.5856 55.7395 22.862 55.4629L25.158 53.1668C25.4344 52.8904 25.512 52.4723 25.3534 52.115L25.3302 52.0629H30.0232C29.8256 53.0911 29.8854 54.1721 30.2262 55.2137C30.3282 55.526 30.5852 55.7626 30.9047 55.839C31.2245 55.9155 31.5605 55.8205 31.7929 55.5882L35.2092 52.1719L36.8489 52.6113L37.2884 54.2512L33.8721 57.6673C33.6397 57.8997 33.5447 58.2359 33.6211 58.5554C33.6974 58.875 33.9343 59.132 34.2465 59.2341C34.896 59.4465 35.5606 59.55 36.2184 59.55C37.8579 59.55 39.4538 58.9067 40.6571 57.7033C42.1562 56.204 42.7803 54.0891 42.3881 52.063H52.517C52.7852 52.063 53.0407 51.9491 53.2199 51.7497C53.3992 51.5503 53.4853 51.284 53.4567 51.0173C53.1722 48.3589 52.4539 45.8053 51.3208 43.4058C53.2659 43.6914 55.3057 43.0542 56.7212 41.6391ZM25.1356 5.72822L25.8271 11.0533C25.8944 11.5709 26.3673 11.9359 26.8862 11.8688C27.4038 11.8016 27.769 11.3275 27.7017 10.8098L26.8663 4.37593C26.8196 4.01606 26.9272 3.8314 27.0261 3.71078C27.3958 3.26005 28.3866 2.93574 29.6838 2.83922C30.9809 2.93574 31.9718 3.26005 32.3414 3.71078C32.4403 3.8314 32.5478 4.01595 32.5012 4.37593L31.6658 10.8098C31.5986 11.3275 31.9637 11.8016 32.4813 11.8688C32.5227 11.8741 32.5637 11.8767 32.6042 11.8767C33.072 11.8767 33.4785 11.5295 33.5404 11.0531L34.2319 5.72822C38.2991 7.51352 40.9609 11.5268 40.9609 16.0482C40.9609 16.0514 40.9608 16.0546 40.9608 16.0578H36.9665V10.0625C36.9665 9.54053 36.5433 9.11734 36.0213 9.11734C35.4993 9.11734 35.0761 9.54053 35.0761 10.0625V16.0578H24.2916V10.0625C24.2916 9.54053 23.8684 9.11734 23.3464 9.11734C22.8245 9.11734 22.4013 9.54053 22.4013 10.0625V16.0578H18.407C18.407 16.0546 18.4069 16.0514 18.4069 16.0482C18.4066 11.5269 21.0682 7.51352 25.1356 5.72822ZM16.4269 18.6813C16.4269 18.277 16.7558 17.9481 17.1602 17.9481H17.4985H41.8685H42.2069C42.6113 17.9481 42.9402 18.277 42.9402 18.6813C42.9402 19.0856 42.6113 19.4145 42.2069 19.4145H18.1394C18.1391 19.4145 18.1386 19.4145 18.1382 19.4145H17.1602C16.7558 19.4145 16.4269 19.0856 16.4269 18.6813ZM19.2659 21.3048H40.1013C39.0455 26.1461 34.7414 29.678 29.6836 29.678C24.6258 29.678 20.3218 26.1461 19.2659 21.3048ZM21.9842 53.6674L20.6297 53.0658C20.3451 52.9393 20.016 52.9615 19.7505 53.1249C18.9067 53.6446 17.9909 54.0242 17.0289 54.2533C16.7257 54.3254 16.4775 54.5423 16.3656 54.8332L15.8336 56.215H13.8847L13.3525 54.8327C13.2407 54.5419 12.9924 54.3249 12.6894 54.2528C11.7277 54.0239 10.8122 53.6444 9.96838 53.1247C9.70279 52.9609 9.37388 52.9394 9.08915 53.0656L7.73402 53.6674L6.35586 52.2894L6.95745 50.935C7.08387 50.6501 7.06189 50.3212 6.89838 50.0557C6.37866 49.2118 5.99906 48.2961 5.76998 47.334C5.69791 47.0308 5.48099 46.7826 5.19012 46.6707L3.80829 46.1387V44.1898L5.19036 43.6578C5.48111 43.5459 5.69814 43.2977 5.77021 42.9947C5.99918 42.0329 6.37866 41.1174 6.8985 40.2734C7.06201 40.0079 7.08399 39.679 6.95757 39.3942L6.35586 38.0393L7.73402 36.6611L9.08903 37.263C9.37376 37.3894 9.70268 37.3675 9.96827 37.2039C10.8122 36.6843 11.7277 36.3047 12.6893 36.0757C12.9923 36.0036 13.2405 35.7866 13.3524 35.4959L13.8845 34.1136H15.8335L16.3656 35.4959C16.4775 35.7866 16.7257 36.0036 17.0287 36.0757C17.9904 36.3047 18.906 36.6842 19.7497 37.2039C20.0153 37.3675 20.3444 37.3891 20.629 37.263L21.984 36.6611L23.3622 38.0392L22.7606 39.3936C22.6341 39.6784 22.6561 40.0073 22.8195 40.2727C23.3394 41.117 23.7191 42.0327 23.948 42.9947C24.0201 43.2978 24.237 43.546 24.5279 43.6579L25.9097 44.1898V46.1387L24.5274 46.6709C24.2367 46.7827 24.0196 47.031 23.9476 47.334C23.7186 48.2957 23.3391 49.2112 22.8194 50.055C22.6559 50.3205 22.6339 50.6494 22.7603 50.9342L23.3622 52.2893L21.9842 53.6674ZM31.757 48.803C31.3424 49.2177 30.9946 49.6791 30.7163 50.1726H24.9136C25.2199 49.5593 25.4696 48.9203 25.6583 48.261L27.1945 47.6697C27.5594 47.5293 27.8002 47.1786 27.8002 46.7876V43.5407C27.8002 43.1497 27.5594 42.7991 27.1945 42.6586L25.6588 42.0676C25.4249 41.2498 25.0985 40.4629 24.6848 39.718L25.3533 38.2132C25.5119 37.8559 25.4343 37.4378 25.1577 37.1612L22.8617 34.8653C22.5852 34.5889 22.1672 34.5115 21.8098 34.6699L20.3044 35.3386C19.7535 35.0326 19.1796 34.7747 18.5871 34.5663C21.9467 32.6014 25.7565 31.5682 29.6835 31.5682C36.0062 31.5682 41.9992 34.2779 46.184 39.012L37.9822 47.2139C35.7863 46.5672 33.4012 47.1589 31.757 48.803ZM40.2835 51.5863C40.9557 53.2328 40.5777 55.109 39.3203 56.3666C38.5651 57.1217 37.5896 57.5616 36.5684 57.6442L39.0108 55.2019C39.2496 54.9631 39.3428 54.6151 39.2554 54.2889L38.5335 51.5948C38.4461 51.2686 38.1914 51.0139 37.8652 50.9264L35.1712 50.2047C35.0903 50.183 35.0082 50.1726 34.9267 50.1726C34.6793 50.1726 34.4379 50.2698 34.2583 50.4494L31.816 52.8918C31.8987 51.8707 32.3387 50.8949 33.0937 50.1397C34.3512 48.8823 36.227 48.5046 37.8741 49.1766C38.2262 49.3204 38.6304 49.239 38.8997 48.97L47.988 39.8816C48.257 39.6125 48.3385 39.2083 48.1946 38.856C47.5327 37.2347 47.9198 35.3137 49.1576 34.0757C49.9282 33.3053 50.8968 32.8648 51.9189 32.7888L49.4674 35.2402C49.2286 35.479 49.1354 35.827 49.2228 36.1532L49.9447 38.8472C50.0321 39.1734 50.2869 39.4281 50.6129 39.5155L53.3068 40.2374C53.633 40.3249 53.981 40.2315 54.2199 39.9928L56.6713 37.5413C56.5953 38.5633 56.1549 39.5321 55.3845 40.3022C54.1464 41.5403 52.2255 41.9277 50.6043 41.2655C50.2519 41.1217 49.8478 41.2032 49.5786 41.4721L40.4901 50.5606C40.2211 50.8298 40.1396 51.234 40.2835 51.5863ZM43.5515 50.1726L49.5798 44.1443C50.4905 46.0566 51.1146 48.0758 51.4402 50.1726H43.5515ZM14.8591 38.5565C11.2156 38.5565 8.25138 41.5208 8.25138 45.1643C8.25138 48.8079 11.2156 51.7721 14.8591 51.7721C18.5026 51.7721 21.4669 48.8079 21.4669 45.1643C21.4668 41.5208 18.5025 38.5565 14.8591 38.5565ZM14.8591 49.8817C12.2579 49.8817 10.1417 47.7655 10.1417 45.1642C10.1417 42.563 12.2579 40.4467 14.8591 40.4467C17.4603 40.4467 19.5765 42.563 19.5765 45.1642C19.5764 47.7655 17.4602 49.8817 14.8591 49.8817Z" fill="#2B99D1"/>
</svg>
